<?xml version="1.0" standalone="yes"?>

<svg version="1.1" viewBox="0.0 0.0 687.0 576.0" fill="none" stroke="none" stroke-linecap="square" stroke-miterlimit="10" xmlns="http://www.w3.org/2000/svg" xmlns:xlink="http://www.w3.org/1999/xlink"><clipPath id="p.0"><path d="m0 0l687.0 0l0 576.0l-687.0 0l0 -576.0z" clip-rule="nonzero"></path></clipPath><g clip-path="url(#p.0)"><path fill="#000000" fill-opacity="0.0" d="m0 0l687.69293 0l0 576.0l-687.69293 0z" fill-rule="nonzero"></path><path fill="#cfe2f3" d="m244.77034 35.640694l0 0c0 -7.534998 6.108322 -13.643318 13.643326 -13.643318l139.79996 0c3.6184387 0 7.088684 1.4374161 9.647308 3.9960346c2.5585938 2.5586185 3.9960327 6.0288486 3.9960327 9.647284l0 54.571632c0 7.534996 -6.1083374 13.643318 -13.643341 13.643318l-139.79996 0c-7.5350037 0 -13.643326 -6.108322 -13.643326 -13.643318z" fill-rule="nonzero"></path><path stroke="#000000" stroke-width="2.0" stroke-linejoin="round" stroke-linecap="butt" d="m244.77034 35.640694l0 0c0 -7.534998 6.108322 -13.643318 13.643326 -13.643318l139.79996 0c3.6184387 0 7.088684 1.4374161 9.647308 3.9960346c2.5585938 2.5586185 3.9960327 6.0288486 3.9960327 9.647284l0 54.571632c0 7.534996 -6.1083374 13.643318 -13.643341 13.643318l-139.79996 0c-7.5350037 0 -13.643326 -6.108322 -13.643326 -13.643318z" fill-rule="nonzero"></path><path fill="#000000" d="m303.40283 69.84651l-3.015625 -9.859379l1.71875 0l1.5625 5.687504l0.59375 2.125q0.03125 -0.15625 0.5 -2.03125l1.578125 -5.781254l1.71875 0l1.46875 5.718754l0.484375 1.890625l0.578125 -1.90625l1.6875 -5.703129l1.625 0l-3.078125 9.859379l-1.734375 0l-1.578125 -5.906254l-0.375 -1.671875l-2.0 7.578129l-1.734375 0zm11.019836 -4.921875q0 -2.7343788 1.53125 -4.062504q1.265625 -1.09375 3.09375 -1.09375q2.03125 0 3.3125 1.34375q1.296875 1.328125 1.296875 3.6718788q0 1.90625 -0.578125 3.0q-0.5625 1.078125 -1.65625 1.6875q-1.078125 0.59375 -2.375 0.59375q-2.0625 0 -3.34375 -1.328125q-1.28125 -1.328125 -1.28125 -3.8125zm1.71875 0q0 1.890625 0.828125 2.828125q0.828125 0.9375 2.078125 0.9375q1.25 0 2.0625 -0.9375q0.828125 -0.953125 0.828125 -2.890625q0 -1.8281288 -0.828125 -2.7656288q-0.828125 -0.9375 -2.0625 -0.9375q-1.25 0 -2.078125 0.9375q-0.828125 0.9375 -0.828125 2.8281288zm9.266327 4.921875l0 -9.859379l1.5 0l0 1.5q0.578125 -1.046875 1.0625 -1.375q0.484375 -0.34375 1.078125 -0.34375q0.84375 0 1.71875 0.546875l-0.578125 1.546875q-0.609375 -0.359375 -1.234375 -0.359375q-0.546875 0 -0.984375 0.328125q-0.421875 0.328125 -0.609375 0.90625q-0.28125 0.890625 -0.28125 1.9531288l0 5.15625l-1.671875 0zm6.243927 0l0 -13.593754l1.671875 0l0 7.750004l3.953125 -4.015629l2.15625 0l-3.765625 3.65625l4.140625 6.203129l-2.0625 0l-3.25 -5.03125l-1.171875 1.125l0 3.90625l-1.671875 0zm16.0625 -3.171875l1.71875 0.21875q-0.40625 1.5 -1.515625 2.34375q-1.09375 0.828125 -2.8125 0.828125q-2.15625 0 -3.421875 -1.328125q-1.265625 -1.328125 -1.265625 -3.734375q0 -2.4843788 1.265625 -3.8593788q1.28125 -1.375 3.328125 -1.375q1.984375 0 3.234375 1.34375q1.25 1.34375 1.25 3.7968788q0 0.140625 -0.015625 0.4375l-7.34375 0q0.09375 1.625 0.921875 2.484375q0.828125 0.859375 2.0625 0.859375q0.90625 0 1.546875 -0.46875q0.65625 -0.484375 1.046875 -1.546875zm-5.484375 -2.7031288l5.5 0q-0.109375 -1.234375 -0.625 -1.859375q-0.796875 -0.96875 -2.078125 -0.96875q-1.140625 0 -1.9375 0.78125q-0.78125 0.765625 -0.859375 2.046875zm9.094482 5.875004l0 -9.859379l1.5 0l0 1.5q0.578125 -1.046875 1.0625 -1.375q0.484375 -0.34375 1.078125 -0.34375q0.84375 0 1.71875 0.546875l-0.578125 1.546875q-0.609375 -0.359375 -1.234375 -0.359375q-0.546875 0 -0.984375 0.328125q-0.421875 0.328125 -0.609375 0.90625q-0.28125 0.890625 -0.28125 1.9531288l0 5.15625l-1.671875 0z" fill-rule="nonzero"></path><path fill="#cfe2f3" d="m154.45932 216.72206l0 0c0 -7.5350037 6.108322 -13.643326 13.643311 -13.643326l139.79999 0c3.6184387 0 7.0886536 1.4374237 9.647278 3.9960327c2.5586243 2.5586243 3.9960327 6.0288544 3.9960327 9.647293l0 54.57164c0 7.534973 -6.108307 13.643311 -13.643311 13.643311l-139.79999 0c-7.5349884 0 -13.643311 -6.1083374 -13.643311 -13.643311z" fill-rule="nonzero"></path><path stroke="#000000" stroke-width="2.0" stroke-linejoin="round" stroke-linecap="butt" d="m154.45932 216.72206l0 0c0 -7.5350037 6.108322 -13.643326 13.643311 -13.643326l139.79999 0c3.6184387 0 7.0886536 1.4374237 9.647278 3.9960327c2.5586243 2.5586243 3.9960327 6.0288544 3.9960327 9.647293l0 54.57164c0 7.534973 -6.108307 13.643311 -13.643311 13.643311l-139.79999 0c-7.5349884 0 -13.643311 -6.1083374 -13.643311 -13.643311z" fill-rule="nonzero"></path><path fill="#000000" d="m217.63155 250.92787l0 -1.25q-0.9375 1.46875 -2.75 1.46875q-1.171875 0 -2.171875 -0.640625q-0.984375 -0.65625 -1.53125 -1.8125q-0.53125 -1.171875 -0.53125 -2.6875q0 -1.46875 0.484375 -2.671875q0.5 -1.203125 1.46875 -1.84375q0.984375 -0.640625 2.203125 -0.640625q0.890625 0 1.578125 0.375q0.703125 0.375 1.140625 0.984375l0 -4.875l1.65625 0l0 13.59375l-1.546875 0zm-5.28125 -4.921875q0 1.890625 0.796875 2.828125q0.8125 0.9375 1.890625 0.9375q1.09375 0 1.859375 -0.890625q0.765625 -0.890625 0.765625 -2.734375q0 -2.015625 -0.78125 -2.953125q-0.78125 -0.953125 -1.921875 -0.953125q-1.109375 0 -1.859375 0.90625q-0.75 0.90625 -0.75 2.859375zm9.266342 -6.734375l0 -1.9375l1.65625 0l0 1.9375l-1.65625 0zm-2.125 15.484375l0.3125 -1.421875q0.5 0.125 0.796875 0.125q0.515625 0 0.765625 -0.34375q0.25 -0.328125 0.25 -1.6875l0 -10.359375l1.65625 0l0 10.390625q0 1.828125 -0.46875 2.546875q-0.59375 0.921875 -2.0 0.921875q-0.671875 0 -1.3125 -0.171875zm12.707321 -5.046875q-0.9375 0.796875 -1.796875 1.125q-0.859375 0.3125 -1.84375 0.3125q-1.609375 0 -2.484375 -0.78125q-0.875 -0.796875 -0.875 -2.03125q0 -0.734375 0.328125 -1.328125q0.328125 -0.59375 0.859375 -0.953125q0.53125 -0.359375 1.203125 -0.546875q0.5 -0.140625 1.484375 -0.25q2.03125 -0.25 2.984375 -0.578125q0 -0.34375 0 -0.4375q0 -1.015625 -0.46875 -1.4375q-0.640625 -0.5625 -1.90625 -0.5625q-1.171875 0 -1.734375 0.40625q-0.5625 0.40625 -0.828125 1.46875l-1.640625 -0.234375q0.234375 -1.046875 0.734375 -1.6875q0.515625 -0.640625 1.46875 -0.984375q0.96875 -0.359375 2.25 -0.359375q1.265625 0 2.046875 0.296875q0.78125 0.296875 1.15625 0.75q0.375 0.453125 0.515625 1.140625q0.09375 0.421875 0.09375 1.53125l0 2.234375q0 2.328125 0.09375 2.953125q0.109375 0.609375 0.4375 1.171875l-1.75 0q-0.265625 -0.515625 -0.328125 -1.21875zm-0.140625 -3.71875q-0.90625 0.359375 -2.734375 0.625q-1.03125 0.140625 -1.453125 0.328125q-0.421875 0.1875 -0.65625 0.546875q-0.234375 0.359375 -0.234375 0.796875q0 0.671875 0.5 1.125q0.515625 0.4375 1.484375 0.4375q0.96875 0 1.71875 -0.421875q0.75 -0.4375 1.109375 -1.15625q0.265625 -0.578125 0.265625 -1.671875l0 -0.609375zm4.078842 4.9375l0 -9.859375l1.5 0l0 1.40625q1.09375 -1.625 3.140625 -1.625q0.890625 0 1.640625 0.328125q0.75 0.3125 1.109375 0.84375q0.375 0.515625 0.53125 1.21875q0.09375 0.46875 0.09375 1.625l0 6.0625l-1.671875 0l0 -6.0q0 -1.015625 -0.203125 -1.515625q-0.1875 -0.515625 -0.6875 -0.8125q-0.5 -0.296875 -1.171875 -0.296875q-1.0625 0 -1.84375 0.671875q-0.765625 0.671875 -0.765625 2.578125l0 5.375l-1.671875 0zm10.078842 0.8125l1.609375 0.25q0.109375 0.75 0.578125 1.09375q0.609375 0.453125 1.6875 0.453125q1.171875 0 1.796875 -0.46875q0.625 -0.453125 0.859375 -1.28125q0.125 -0.515625 0.109375 -2.15625q-1.09375 1.296875 -2.71875 1.296875q-2.03125 0 -3.15625 -1.46875q-1.109375 -1.46875 -1.109375 -3.515625q0 -1.40625 0.515625 -2.59375q0.515625 -1.203125 1.484375 -1.84375q0.96875 -0.65625 2.265625 -0.65625q1.75 0 2.875 1.40625l0 -1.1875l1.546875 0l0 8.515625q0 2.3125 -0.46875 3.265625q-0.46875 0.96875 -1.484375 1.515625q-1.015625 0.5625 -2.5 0.5625q-1.765625 0 -2.859375 -0.796875q-1.078125 -0.796875 -1.03125 -2.390625zm1.375 -5.921875q0 1.953125 0.765625 2.84375q0.78125 0.890625 1.9375 0.890625q1.140625 0 1.921875 -0.890625q0.78125 -0.890625 0.78125 -2.78125q0 -1.8125 -0.8125 -2.71875q-0.796875 -0.921875 -1.921875 -0.921875q-1.109375 0 -1.890625 0.90625q-0.78125 0.890625 -0.78125 2.671875zm8.672592 0.1875q0 -2.734375 1.53125 -4.0625q1.265625 -1.09375 3.09375 -1.09375q2.03125 0 3.3125 1.34375q1.296875 1.328125 1.296875 3.671875q0 1.90625 -0.578125 3.0q-0.5625 1.078125 -1.65625 1.6875q-1.078125 0.59375 -2.375 0.59375q-2.0625 0 -3.34375 -1.328125q-1.28125 -1.328125 -1.28125 -3.8125zm1.71875 0q0 1.890625 0.828125 2.828125q0.828125 0.9375 2.078125 0.9375q1.25 0 2.0625 -0.9375q0.828125 -0.953125 0.828125 -2.890625q0 -1.828125 -0.828125 -2.765625q-0.828125 -0.9375 -2.0625 -0.9375q-1.25 0 -2.078125 0.9375q-0.828125 0.9375 -0.828125 2.828125z" fill-rule="nonzero"></path><path fill="#fff2cc" d="m34.459316 62.92651l83.543304 -52.157482l83.543304 52.157482l-83.543304 52.157482z" fill-rule="nonzero"></path><path stroke="#000000" stroke-width="2.0" stroke-linejoin="round" stroke-linecap="butt" d="m34.459316 62.92651l83.543304 -52.157482l83.543304 52.157482l-83.543304 52.157482z" fill-rule="nonzero"></path><path fill="#000000" d="m101.38602 58.846508l-3.015625 -9.859375l1.71875 0l1.5625 5.6875l0.59375 2.125q0.03125 -0.15625 0.5 -2.03125l1.578125 -5.78125l1.71875 0l1.46875 5.71875l0.484375 1.890625l0.578125 -1.90625l1.6875 -5.703125l1.625 0l-3.078125 9.859375l-1.734375 0l-1.578125 -5.90625l-0.375 -1.671875l-2.0 7.578125l-1.734375 0zm11.019821 -4.921875q0 -2.734375 1.53125 -4.0625q1.265625 -1.09375 3.09375 -1.09375q2.03125 0 3.3125 1.34375q1.296875 1.328125 1.296875 3.671875q0 1.90625 -0.578125 3.0q-0.5625 1.078125 -1.65625 1.6875q-1.078125 0.59375 -2.375 0.59375q-2.0625 0 -3.34375 -1.328125q-1.28125 -1.328125 -1.28125 -3.8125zm1.71875 0q0 1.890625 0.828125 2.828125q0.828125 0.9375 2.078125 0.9375q1.25 0 2.0625 -0.9375q0.828125 -0.953125 0.828125 -2.890625q0 -1.828125 -0.828125 -2.765625q-0.828125 -0.9375 -2.0625 -0.9375q-1.25 0 -2.078125 0.9375q-0.828125 0.9375 -0.828125 2.828125zm9.266342 4.921875l0 -9.859375l1.5 0l0 1.5q0.578125 -1.046875 1.0625 -1.375q0.484375 -0.34375 1.078125 -0.34375q0.84375 0 1.71875 0.546875l-0.578125 1.546875q-0.609375 -0.359375 -1.234375 -0.359375q-0.546875 0 -0.984375 0.328125q-0.421875 0.328125 -0.609375 0.90625q-0.28125 0.890625 -0.28125 1.953125l0 5.15625l-1.671875 0zm6.243927 0l0 -13.59375l1.671875 0l0 7.75l3.953125 -4.015625l2.15625 0l-3.765625 3.65625l4.140625 6.203125l-2.0625 0l-3.25 -5.03125l-1.171875 1.125l0 3.90625l-1.671875 0z" fill-rule="nonzero"></path><path fill="#000000" d="m99.59458 84.627754l0 -4.828125q-0.390625 0.546875 -1.09375 0.90625q-0.6875 0.359375 -1.484375 0.359375q-1.75 0 -3.015625 -1.390625q-1.265625 -1.40625 -1.265625 -3.84375q0 -1.484375 0.515625 -2.65625q0.515625 -1.1875 1.484375 -1.796875q0.984375 -0.609375 2.15625 -0.609375q1.828125 0 2.875 1.546875l0 -1.328125l1.5 0l0 13.640625l-1.671875 0zm-5.140625 -8.734375q0 1.90625 0.796875 2.859375q0.796875 0.9375 1.90625 0.9375q1.0625 0 1.828125 -0.890625q0.78125 -0.90625 0.78125 -2.765625q0 -1.953125 -0.8125 -2.953125q-0.8125 -1.0 -1.90625 -1.0q-1.09375 0 -1.84375 0.9375q-0.75 0.921875 -0.75 2.875zm15.688217 4.953125l0 -1.453125q-1.140625 1.671875 -3.125 1.671875q-0.859375 0 -1.625 -0.328125q-0.75 -0.34375 -1.125 -0.84375q-0.359375 -0.5 -0.515625 -1.234375q-0.09375 -0.5 -0.09375 -1.5625l0 -6.109375l1.671875 0l0 5.46875q0 1.3125 0.09375 1.765625q0.15625 0.65625 0.671875 1.03125q0.515625 0.375 1.265625 0.375q0.75 0 1.40625 -0.375q0.65625 -0.390625 0.921875 -1.046875q0.28125 -0.671875 0.28125 -1.9375l0 -5.28125l1.671875 0l0 9.859375l-1.5 0zm10.672592 -3.171875l1.71875 0.21875q-0.40625 1.5 -1.515625 2.34375q-1.09375 0.828125 -2.8125 0.828125q-2.15625 0 -3.421875 -1.328125q-1.265625 -1.328125 -1.265625 -3.734375q0 -2.484375 1.265625 -3.859375q1.28125 -1.375 3.328125 -1.375q1.984375 0 3.234375 1.34375q1.25 1.34375 1.25 3.796875q0 0.140625 -0.015625 0.4375l-7.34375 0q0.09375 1.625 0.921875 2.484375q0.828125 0.859375 2.0625 0.859375q0.90625 0 1.546875 -0.46875q0.65625 -0.484375 1.046875 -1.546875zm-5.484375 -2.703125l5.5 0q-0.109375 -1.234375 -0.625 -1.859375q-0.796875 -0.96875 -2.078125 -0.96875q-1.140625 0 -1.9375 0.78125q-0.78125 0.765625 -0.859375 2.046875zm15.56321 5.875l0 -1.453125q-1.140625 1.671875 -3.1249924 1.671875q-0.859375 0 -1.625 -0.328125q-0.75 -0.34375 -1.125 -0.84375q-0.359375 -0.5 -0.515625 -1.234375q-0.09375 -0.5 -0.09375 -1.5625l0 -6.109375l1.671875 0l0 5.46875q0 1.3125 0.09375 1.765625q0.15625 0.65625 0.671875 1.03125q0.515625 0.375 1.2656174 0.375q0.75 0 1.40625 -0.375q0.65625 -0.390625 0.921875 -1.046875q0.28125 -0.671875 0.28125 -1.9375l0 -5.28125l1.671875 0l0 9.859375l-1.5 0zm10.672592 -3.171875l1.71875 0.21875q-0.40625 1.5 -1.515625 2.34375q-1.09375 0.828125 -2.8125 0.828125q-2.15625 0 -3.421875 -1.328125q-1.265625 -1.328125 -1.265625 -3.734375q0 -2.484375 1.265625 -3.859375q1.28125 -1.375 3.328125 -1.375q1.984375 0 3.234375 1.34375q1.25 1.34375 1.25 3.796875q0 0.140625 -0.015625 0.4375l-7.34375 0q0.09375 1.625 0.921875 2.484375q0.828125 0.859375 2.0625 0.859375q0.90625 0 1.546875 -0.46875q0.65625 -0.484375 1.046875 -1.546875zm-5.484375 -2.703125l5.5 0q-0.109375 -1.234375 -0.625 -1.859375q-0.796875 -0.96875 -2.078125 -0.96875q-1.140625 0 -1.9375 0.78125q-0.78125 0.765625 -0.859375 2.046875z" fill-rule="nonzero"></path><path fill="#000000" fill-opacity="0.0" d="m190.00262 203.08398l-72.0 -87.99999" fill-rule="nonzero"></path><path stroke="#000000" stroke-width="2.0" stroke-linejoin="round" stroke-linecap="butt" d="m190.00262 203.08398l-64.401146 -78.71251" fill-rule="evenodd"></path><path fill="#000000" stroke="#000000" stroke-width="2.0" stroke-linecap="butt" d="m128.15822 122.279594l-8.304131 -4.9327087l3.190651 9.11647z" fill-rule="evenodd"></path><path fill="#000000" fill-opacity="0.0" d="m244.77034 62.92651l-43.2126 0" fill-rule="nonzero"></path><path stroke="#000000" stroke-width="2.0" stroke-linejoin="round" stroke-linecap="butt" d="m232.77034 62.92651l-31.2126 0" fill-rule="evenodd"></path><path fill="#000000" stroke="#000000" stroke-width="2.0" stroke-linecap="butt" d="m232.77034 66.22997l9.076202 -3.303463l-9.076202 -3.3034668z" fill-rule="evenodd"></path><path fill="#000000" fill-opacity="0.0" d="m157.54593 127.3937l156.0 0l0 45.22834l-156.0 0z" fill-rule="nonzero"></path><path fill="#000000" d="m171.45218 152.8137l0.234375 1.484375q-0.703125 0.140625 -1.265625 0.140625q-0.90625 0 -1.40625 -0.28125q-0.5 -0.296875 -0.703125 -0.75q-0.203125 -0.46875 -0.203125 -1.984375l0 -5.65625l-1.234375 0l0 -1.3125l1.234375 0l0 -2.4375l1.65625 -1.0l0 3.4375l1.6875 0l0 1.3125l-1.6875 0l0 5.75q0 0.71875 0.078125 0.921875q0.09375 0.203125 0.296875 0.328125q0.203125 0.125 0.578125 0.125q0.265625 0 0.734375 -0.078125zm7.964554 0.28125q-0.9375 0.796875 -1.796875 1.125q-0.859375 0.3125 -1.84375 0.3125q-1.609375 0 -2.484375 -0.78125q-0.875 -0.796875 -0.875 -2.03125q0 -0.734375 0.328125 -1.328125q0.328125 -0.59375 0.859375 -0.953125q0.53125 -0.359375 1.203125 -0.546875q0.5 -0.140625 1.484375 -0.25q2.03125 -0.25 2.984375 -0.578125q0 -0.34375 0 -0.4375q0 -1.015625 -0.46875 -1.4375q-0.640625 -0.5625 -1.90625 -0.5625q-1.171875 0 -1.734375 0.40625q-0.5625 0.40625 -0.828125 1.46875l-1.640625 -0.234375q0.234375 -1.046875 0.734375 -1.6875q0.515625 -0.640625 1.46875 -0.984375q0.96875 -0.359375 2.25 -0.359375q1.265625 0 2.046875 0.296875q0.78125 0.296875 1.15625 0.75q0.375 0.453125 0.515625 1.140625q0.09375 0.421875 0.09375 1.53125l0 2.234375q0 2.328125 0.09375 2.953125q0.109375 0.609375 0.4375 1.171875l-1.75 0q-0.265625 -0.515625 -0.328125 -1.21875zm-0.140625 -3.71875q-0.90625 0.359375 -2.734375 0.625q-1.03125 0.140625 -1.453125 0.328125q-0.421875 0.1875 -0.65625 0.546875q-0.234375 0.359375 -0.234375 0.796875q0 0.671875 0.5 1.125q0.515625 0.4375 1.484375 0.4375q0.96875 0 1.71875 -0.421875q0.75 -0.4375 1.109375 -1.15625q0.265625 -0.578125 0.265625 -1.671875l0 -0.609375zm3.4069672 2.0l1.65625 -0.265625q0.140625 1.0 0.765625 1.53125q0.640625 0.515625 1.78125 0.515625q1.15625 0 1.703125 -0.46875q0.5625 -0.46875 0.5625 -1.09375q0 -0.5625 -0.484375 -0.890625q-0.34375 -0.21875 -1.703125 -0.5625q-1.84375 -0.46875 -2.5625 -0.796875q-0.703125 -0.34375 -1.078125 -0.9375q-0.359375 -0.609375 -0.359375 -1.328125q0 -0.65625 0.296875 -1.21875q0.3125 -0.5625 0.828125 -0.9375q0.390625 -0.28125 1.0625 -0.484375q0.671875 -0.203125 1.4375 -0.203125q1.171875 0 2.046875 0.34375q0.875 0.328125 1.28125 0.90625q0.421875 0.5625 0.578125 1.515625l-1.625 0.21875q-0.109375 -0.75 -0.65625 -1.171875q-0.53125 -0.4375 -1.5 -0.4375q-1.15625 0 -1.640625 0.390625q-0.484375 0.375 -0.484375 0.875q0 0.328125 0.203125 0.59375q0.203125 0.265625 0.640625 0.4375q0.25 0.09375 1.46875 0.4375q1.765625 0.46875 2.46875 0.765625q0.703125 0.296875 1.09375 0.875q0.40625 0.578125 0.40625 1.4375q0 0.828125 -0.484375 1.578125q-0.484375 0.734375 -1.40625 1.140625q-0.921875 0.390625 -2.078125 0.390625q-1.921875 0 -2.9375 -0.796875q-1.0 -0.796875 -1.28125 -2.359375zm10.015625 2.9375l0 -13.59375l1.671875 0l0 7.75l3.953125 -4.015625l2.15625 0l-3.765625 3.65625l4.140625 6.203125l-2.0625 0l-3.25 -5.03125l-1.171875 1.125l0 3.90625l-1.671875 0zm7.78125 3.78125l0 -1.21875l11.0625 0l0 1.21875l-11.0625 0zm11.922592 -15.46875l0 -1.90625l1.671875 0l0 1.90625l-1.671875 0zm0 11.6875l0 -9.859375l1.671875 0l0 9.859375l-1.671875 0zm10.519821 0l0 -1.25q-0.9375 1.46875 -2.75 1.46875q-1.171875 0 -2.171875 -0.640625q-0.984375 -0.65625 -1.53125 -1.8125q-0.53125 -1.171875 -0.53125 -2.6875q0 -1.46875 0.484375 -2.671875q0.5 -1.203125 1.46875 -1.84375q0.984375 -0.640625 2.203125 -0.640625q0.890625 0 1.578125 0.375q0.703125 0.375 1.140625 0.984375l0 -4.875l1.65625 0l0 13.59375l-1.546875 0zm-5.28125 -4.921875q0 1.890625 0.796875 2.828125q0.8125 0.9375 1.890625 0.9375q1.09375 0 1.859375 -0.890625q0.765625 -0.890625 0.765625 -2.734375q0 -2.015625 -0.78125 -2.953125q-0.78125 -0.953125 -1.921875 -0.953125q-1.109375 0 -1.859375 0.90625q-0.75 0.90625 -0.75 2.859375zm18.047592 -3.078125l-8.96875 0l0 -1.5625l8.96875 0l0 1.5625zm0 4.125l-8.96875 0l0 -1.546875l8.96875 0l0 1.546875zm7.9418335 3.875l-1.671875 0l0 -10.640625q-0.59375 0.578125 -1.578125 1.15625q-0.984375 0.5625 -1.765625 0.859375l0 -1.625q1.40625 -0.65625 2.453125 -1.59375q1.046875 -0.9375 1.484375 -1.8125l1.078125 0l0 13.65625zm12.860092 -1.609375l0 1.609375l-8.984375 0q-0.015625 -0.609375 0.1875 -1.15625q0.34375 -0.921875 1.09375 -1.8125q0.765625 -0.890625 2.1875 -2.0625q2.21875 -1.8125 3.0 -2.875q0.78125 -1.0625 0.78125 -2.015625q0 -0.984375 -0.71875 -1.671875q-0.703125 -0.6875 -1.84375 -0.6875q-1.203125 0 -1.9375 0.734375q-0.71875 0.71875 -0.71875 2.0l-1.71875 -0.171875q0.171875 -1.921875 1.328125 -2.921875q1.15625 -1.015625 3.09375 -1.015625q1.953125 0 3.09375 1.09375q1.140625 1.078125 1.140625 2.6875q0 0.8125 -0.34375 1.609375q-0.328125 0.78125 -1.109375 1.65625q-0.765625 0.859375 -2.5625 2.390625q-1.5 1.265625 -1.9375 1.71875q-0.421875 0.4375 -0.703125 0.890625l6.671875 0zm1.6101074 -1.984375l1.671875 -0.21875q0.28125 1.421875 0.96875 2.046875q0.703125 0.625 1.6875 0.625q1.1875 0 2.0 -0.8125q0.8125 -0.828125 0.8125 -2.03125q0 -1.140625 -0.765625 -1.890625q-0.75 -0.75 -1.90625 -0.75q-0.46875 0 -1.171875 0.1875l0.1875 -1.46875q0.15625 0.015625 0.265625 0.015625q1.0625 0 1.90625 -0.546875q0.859375 -0.5625 0.859375 -1.71875q0 -0.921875 -0.625 -1.515625q-0.609375 -0.609375 -1.59375 -0.609375q-0.96875 0 -1.625 0.609375q-0.640625 0.609375 -0.828125 1.84375l-1.671875 -0.296875q0.296875 -1.6875 1.375 -2.609375q1.09375 -0.921875 2.71875 -0.921875q1.109375 0 2.046875 0.484375q0.9375 0.46875 1.421875 1.296875q0.5 0.828125 0.5 1.75q0 0.890625 -0.46875 1.609375q-0.46875 0.71875 -1.40625 1.15625q1.21875 0.265625 1.875 1.15625q0.671875 0.875 0.671875 2.1875q0 1.78125 -1.296875 3.015625q-1.296875 1.234375 -3.28125 1.234375q-1.796875 0 -2.984375 -1.0625q-1.171875 -1.0625 -1.34375 -2.765625zm15.719452 3.59375l0 -3.25l-5.90625 0l0 -1.53125l6.21875 -8.8125l1.359375 0l0 8.8125l1.84375 0l0 1.53125l-1.84375 0l0 3.25l-1.671875 0zm0 -4.78125l0 -6.140625l-4.25 6.140625l4.25 0zm5.0163574 1.21875l1.765625 -0.15625q0.1875 1.28125 0.890625 1.9375q0.71875 0.640625 1.71875 0.640625q1.203125 0 2.03125 -0.90625q0.84375 -0.90625 0.84375 -2.421875q0 -1.421875 -0.8125 -2.25q-0.796875 -0.828125 -2.09375 -0.828125q-0.796875 0 -1.453125 0.375q-0.640625 0.359375 -1.015625 0.953125l-1.578125 -0.203125l1.328125 -7.0l6.765625 0l0 1.609375l-5.4375 0l-0.734375 3.640625q1.234375 -0.84375 2.578125 -0.84375q1.78125 0 3.0 1.234375q1.234375 1.234375 1.234375 3.171875q0 1.84375 -1.078125 3.1875q-1.3125 1.65625 -3.578125 1.65625q-1.859375 0 -3.03125 -1.03125q-1.171875 -1.046875 -1.34375 -2.765625z" fill-rule="nonzero"></path><path fill="#fce5cd" d="m154.45932 483.7982l0 0c0 -7.5350037 6.108322 -13.643341 13.643311 -13.643341l139.79999 0c3.6184387 0 7.0886536 1.437439 9.647278 3.9960327c2.5586243 2.5586243 3.9960327 6.0288696 3.9960327 9.647308l0 54.571625c0 7.534973 -6.108307 13.643311 -13.643311 13.643311l-139.79999 0c-7.5349884 0 -13.643311 -6.1083374 -13.643311 -13.643311z" fill-rule="nonzero"></path><path stroke="#000000" stroke-width="2.0" stroke-linejoin="round" stroke-linecap="butt" d="m154.45932 483.7982l0 0c0 -7.5350037 6.108322 -13.643341 13.643311 -13.643341l139.79999 0c3.6184387 0 7.0886536 1.437439 9.647278 3.9960327c2.5586243 2.5586243 3.9960327 6.0288696 3.9960327 9.647308l0 54.571625c0 7.534973 -6.108307 13.643311 -13.643311 13.643311l-139.79999 0c-7.5349884 0 -13.643311 -6.1083374 -13.643311 -13.643311z" fill-rule="nonzero"></path><path fill="#000000" d="m223.91388 514.3946l1.640625 0.21875q-0.265625 1.6875 -1.375 2.65625q-1.109375 0.953125 -2.734375 0.953125q-2.015625 0 -3.25 -1.3125q-1.21875 -1.328125 -1.21875 -3.796875q0 -1.5937195 0.515625 -2.7812195q0.53125 -1.203125 1.609375 -1.796875q1.09375 -0.609375 2.359375 -0.609375q1.609375 0 2.625 0.8125q1.015625 0.8125 1.3125 2.3125l-1.625 0.25q-0.234375 -1.0 -0.828125 -1.5q-0.59375 -0.5 -1.421875 -0.5q-1.265625 0 -2.0625 0.90625q-0.78125 0.90625 -0.78125 2.8593445q0 1.984375 0.765625 2.890625q0.765625 0.890625 1.984375 0.890625q0.984375 0 1.640625 -0.59375q0.65625 -0.609375 0.84375 -1.859375zm2.859375 3.609375l0 -13.5937195l1.671875 0l0 13.5937195l-1.671875 0zm4.191696 -11.6874695l0 -1.90625l1.671875 0l0 1.90625l-1.671875 0zm0 11.6874695l0 -9.8593445l1.671875 0l0 9.8593445l-1.671875 0zm10.879196 -3.171875l1.71875 0.21875q-0.40625 1.5 -1.515625 2.34375q-1.09375 0.828125 -2.8125 0.828125q-2.15625 0 -3.421875 -1.328125q-1.265625 -1.328125 -1.265625 -3.734375q0 -2.4843445 1.265625 -3.8593445q1.28125 -1.375 3.328125 -1.375q1.984375 0 3.234375 1.34375q1.25 1.34375 1.25 3.7968445q0 0.140625 -0.015625 0.4375l-7.34375 0q0.09375 1.625 0.921875 2.484375q0.828125 0.859375 2.0625 0.859375q0.90625 0 1.546875 -0.46875q0.65625 -0.484375 1.046875 -1.546875zm-5.484375 -2.703125l5.5 0q-0.109375 -1.2343445 -0.625 -1.8593445q-0.796875 -0.96875 -2.078125 -0.96875q-1.140625 0 -1.9375 0.78125q-0.78125 0.765625 -0.859375 2.0468445zm9.110092 5.875l0 -9.8593445l1.5 0l0 1.40625q1.09375 -1.625 3.140625 -1.625q0.890625 0 1.640625 0.328125q0.75 0.3125 1.109375 0.84375q0.375 0.515625 0.53125 1.21875q0.09375 0.46875 0.09375 1.625l0 6.0624695l-1.671875 0l0 -6.0q0 -1.0155945 -0.203125 -1.5155945q-0.1875 -0.515625 -0.6875 -0.8125q-0.5 -0.296875 -1.171875 -0.296875q-1.0625 0 -1.84375 0.671875q-0.765625 0.671875 -0.765625 2.5780945l0 5.375l-1.671875 0zm14.031967 -1.5l0.234375 1.484375q-0.703125 0.140625 -1.265625 0.140625q-0.90625 0 -1.40625 -0.28125q-0.5 -0.296875 -0.703125 -0.75q-0.203125 -0.46875 -0.203125 -1.984375l0 -5.6562195l-1.234375 0l0 -1.3125l1.234375 0l0 -2.4375l1.65625 -1.0l0 3.4375l1.6875 0l0 1.3125l-1.6875 0l0 5.7499695q0 0.71875 0.078125 0.921875q0.09375 0.203125 0.296875 0.328125q0.203125 0.125 0.578125 0.125q0.265625 0 0.734375 -0.078125z" fill-rule="nonzero"></path><path fill="#000000" fill-opacity="0.0" d="m190.00262 284.937l-2.015747 185.82678" fill-rule="nonzero"></path><path stroke="#000000" stroke-width="2.0" stroke-linejoin="round" stroke-linecap="butt" d="m189.87245 296.9363l-1.8855743 173.82748" fill-rule="evenodd"></path><path fill="#000000" stroke="#000000" stroke-width="2.0" stroke-linecap="butt" d="m193.17574 296.97214l-3.2048187 -9.111511l-3.4017181 9.039856z" fill-rule="evenodd"></path><path fill="#000000" fill-opacity="0.0" d="m11.703412 302.46194l194.29921 0l0 158.4567l-194.29921 0z" fill-rule="nonzero"></path><path fill="#000000" d="m22.172163 329.38193l0 -13.59375l5.125 0q1.359375 0 2.078125 0.125q1.0 0.171875 1.671875 0.640625q0.671875 0.46875 1.0781231 1.3125q0.421875 0.84375 0.421875 1.84375q0 1.734375 -1.1093731 2.9375q-1.09375 1.203125 -3.984375 1.203125l-3.484375 0l0 5.53125l-1.796875 0zm1.796875 -7.140625l3.515625 0q1.75 0 2.46875 -0.640625q0.734375 -0.65625 0.734375 -1.828125q0 -0.859375 -0.4375 -1.46875q-0.421875 -0.609375 -1.125 -0.796875q-0.453125 -0.125 -1.671875 -0.125l-3.484375 0l0 4.859375zm10.099821 0.515625q0 -3.390625 1.8125 -5.296875q1.828125 -1.921875 4.703125 -1.921875q1.875 0 3.390625 0.90625q1.515625 0.890625 2.296875 2.5q0.796875 1.609375 0.796875 3.65625q0 2.0625 -0.84375 3.703125q-0.828125 1.625 -2.359375 2.46875q-1.53125 0.84375 -3.296875 0.84375q-1.921875 0 -3.4375 -0.921875q-1.5 -0.9375 -2.28125 -2.53125q-0.78125 -1.609375 -0.78125 -3.40625zm1.859375 0.03125q0 2.453125 1.3125 3.875q1.328125 1.40625 3.3125 1.40625q2.03125 0 3.34375 -1.421875q1.3125 -1.4375 1.3125 -4.0625q0 -1.65625 -0.5625 -2.890625q-0.546875 -1.234375 -1.640625 -1.921875q-1.078125 -0.6875 -2.421875 -0.6875q-1.90625 0 -3.28125 1.3125q-1.375 1.3125 -1.375 4.390625zm12.589554 2.21875l1.6875 -0.140625q0.125 1.015625 0.5625 1.671875q0.4375 0.65625 1.359375 1.0625q0.9375 0.40625 2.09375 0.40625q1.03125 0 1.8125 -0.3125q0.796875 -0.3125 1.1875 -0.84375q0.390625 -0.53125 0.390625 -1.15625q0 -0.640625 -0.375 -1.109375q-0.375 -0.484375 -1.234375 -0.8125q-0.546875 -0.21875 -2.421875 -0.65625q-1.875 -0.453125 -2.625 -0.859375q-0.96875 -0.515625 -1.453125 -1.265625q-0.46875 -0.75 -0.46875 -1.6875q0 -1.03125 0.578125 -1.921875q0.59375 -0.90625 1.703125 -1.359375q1.125 -0.46875 2.5 -0.46875q1.515625 0 2.671875 0.484375q1.15625 0.484375 1.765625 1.4375q0.625 0.9375 0.671875 2.140625l-1.71875 0.125q-0.140625 -1.28125 -0.953125 -1.9375q-0.796875 -0.671875 -2.359375 -0.671875q-1.625 0 -2.375 0.609375q-0.75 0.59375 -0.75 1.4375q0 0.734375 0.53125 1.203125q0.515625 0.46875 2.703125 0.96875q2.203125 0.5 3.015625 0.875q1.1875 0.546875 1.75 1.390625q0.578125 0.828125 0.578125 1.921875q0 1.09375 -0.625 2.0625q-0.625 0.953125 -1.796875 1.484375q-1.15625 0.53125 -2.609375 0.53125q-1.84375 0 -3.09375 -0.53125q-1.25 -0.546875 -1.96875 -1.625q-0.703125 -1.078125 -0.734375 -2.453125zm16.506077 4.375l0 -12.0l-4.468754 0l0 -1.59375l10.765629 0l0 1.59375l-4.5 0l0 12.0l-1.796875 0zm11.65741 0.234375l3.9375 -14.0625l1.34375 0l-3.9375 14.0625l-1.34375 0zm6.839554 -0.234375l0 -8.546875l-1.484375 0l0 -1.3125l1.484375 0l0 -1.046875q0 -0.984375 0.171875 -1.46875q0.234375 -0.65625 0.84375 -1.046875q0.609375 -0.40625 1.703125 -0.40625q0.703125 0 1.5625 0.15625l-0.25 1.46875q-0.515625 -0.09375 -0.984375 -0.09375q-0.765625 0 -1.078125 0.328125q-0.3125 0.3125 -0.3125 1.203125l0 0.90625l1.921875 0l0 1.3125l-1.921875 0l0 8.546875l-1.65625 0zm4.152054 -4.921875q0 -2.734375 1.53125 -4.0625q1.265625 -1.09375 3.09375 -1.09375q2.03125 0 3.3125 1.34375q1.296875 1.328125 1.296875 3.671875q0 1.90625 -0.578125 3.0q-0.5625 1.078125 -1.65625 1.6875q-1.078125 0.59375 -2.375 0.59375q-2.0625 0 -3.34375 -1.328125q-1.28125 -1.328125 -1.28125 -3.8125zm1.71875 0q0 1.890625 0.828125 2.828125q0.828125 0.9375 2.078125 0.9375q1.25 0 2.0625 -0.9375q0.828125 -0.953125 0.828125 -2.890625q0 -1.828125 -0.828125 -2.765625q-0.828125 -0.9375 -2.0625 -0.9375q-1.25 0 -2.078125 0.9375q-0.828125 0.9375 -0.828125 2.828125zm8.656967 0q0 -2.734375 1.53125 -4.0625q1.265625 -1.09375 3.09375 -1.09375q2.03125 0 3.3125 1.34375q1.296875 1.328125 1.296875 3.671875q0 1.90625 -0.578125 3.0q-0.5625 1.078125 -1.65625 1.6875q-1.078125 0.59375 -2.375 0.59375q-2.0625 0 -3.34375 -1.328125q-1.28125 -1.328125 -1.28125 -3.8125zm1.71875 0q0 1.890625 0.828125 2.828125q0.828125 0.9375 2.078125 0.9375q1.25 0 2.0625 -0.9375q0.828125 -0.953125 0.828125 -2.890625q0 -1.828125 -0.828125 -2.765625q-0.828125 -0.9375 -2.0625 -0.9375q-1.25 0 -2.078125 0.9375q-0.828125 0.9375 -0.828125 2.828125z" fill-rule="nonzero"></path><path fill="#000000" d="m30.265913 371.77255l0 1.609375l-8.984375 0q-0.015625 -0.609375 0.1875 -1.15625q0.34375 -0.921875 1.09375 -1.8125q0.765625 -0.890625 2.1875 -2.0625q2.21875 -1.8125 3.0 -2.875q0.78125 -1.0625 0.78125 -2.015625q0 -0.984375 -0.71875 -1.671875q-0.703125 -0.6875 -1.84375 -0.6875q-1.203125 0 -1.9375 0.734375q-0.71875 0.71875 -0.71875 2.0l-1.71875 -0.171875q0.171875 -1.921875 1.328125 -2.921875q1.15625 -1.015625 3.09375 -1.015625q1.953125 0 3.09375 1.09375q1.140625 1.078125 1.140625 2.6875q0 0.8125 -0.34375 1.609375q-0.328125 0.78125 -1.109375 1.65625q-0.765625 0.859375 -2.5625 2.390625q-1.5 1.265625 -1.9375 1.71875q-0.421875 0.4375 -0.703125 0.890625l6.671875 0zm1.5944672 -5.09375q0 -2.421875 0.4999981 -3.890625q0.5 -1.46875 1.46875 -2.265625q0.984375 -0.796875 2.46875 -0.796875q1.09375 0 1.921875 0.4375q0.828125 0.4375 1.359375 1.28125q0.546875 0.828125 0.84375 2.015625q0.3125 1.1875 0.3125 3.21875q0 2.390625 -0.5 3.859375q-0.484375 1.46875 -1.46875 2.28125q-0.96875 0.796875 -2.46875 0.796875q-1.96875 0 -3.078125 -1.40625q-1.3593731 -1.703125 -1.3593731 -5.53125zm1.7187481 0q0 3.34375 0.78125 4.453125q0.796875 1.109375 1.9375 1.109375q1.15625 0 1.9375 -1.109375q0.78125 -1.125 0.78125 -4.453125q0 -3.359375 -0.78125 -4.46875q-0.78125 -1.109375 -1.953125 -1.109375q-1.15625 0 -1.828125 0.984375q-0.875 1.234375 -0.875 4.59375zm17.438217 5.09375l0 1.609375l-8.984375 0q-0.015625 -0.609375 0.1875 -1.15625q0.34375 -0.921875 1.09375 -1.8125q0.765625 -0.890625 2.1875 -2.0625q2.21875 -1.8125 3.0 -2.875q0.78125 -1.0625 0.78125 -2.015625q0 -0.984375 -0.71875 -1.671875q-0.703125 -0.6875 -1.84375 -0.6875q-1.203125 0 -1.9375 0.734375q-0.71875 0.71875 -0.71875 2.0l-1.71875 -0.171875q0.171875 -1.921875 1.328125 -2.921875q1.15625 -1.015625 3.09375 -1.015625q1.953125 0 3.09375 1.09375q1.140625 1.078125 1.140625 2.6875q0 0.8125 -0.34375 1.609375q-0.328125 0.78125 -1.109375 1.65625q-0.765625 0.859375 -2.5625 2.390625q-1.5 1.265625 -1.9375 1.71875q-0.421875 0.4375 -0.703125 0.890625l6.671875 0zm5.965271 1.609375l5.234375 -13.59375l1.9375038 0l5.5625 13.59375l-2.046875 0l-1.59375 -4.125l-5.687504 0l-1.484375 4.125l-1.921875 0zm3.921875 -5.578125l4.609379 0l-1.40625 -3.78125q-0.6562538 -1.703125 -0.9687538 -2.8125q-0.265625 1.3125 -0.734375 2.59375l-1.5 4.0zm19.724827 0.8125l1.796875 0.453125q-0.5625 2.21875 -2.03125 3.390625q-1.46875 1.15625 -3.59375 1.15625q-2.203125 0 -3.578125 -0.890625q-1.375 -0.90625 -2.09375 -2.59375q-0.71875 -1.703125 -0.71875 -3.65625q0 -2.125 0.796875 -3.703125q0.8125 -1.578125 2.3125 -2.390625q1.5 -0.828125 3.296875 -0.828125q2.046875 0 3.4375 1.046875q1.390625 1.03125 1.9375 2.90625l-1.765625 0.421875q-0.46875 -1.484375 -1.375 -2.15625q-0.90625 -0.6875 -2.265625 -0.6875q-1.5625 0 -2.625 0.75q-1.046875 0.75 -1.484375 2.03125q-0.421875 1.265625 -0.421875 2.609375q0 1.734375 0.5 3.03125q0.515625 1.28125 1.578125 1.921875q1.078125 0.640625 2.3125 0.640625q1.515625 0 2.5625 -0.859375q1.046875 -0.875 1.421875 -2.59375zm13.472946 0l1.796875 0.453125q-0.5625 2.21875 -2.03125 3.390625q-1.46875 1.15625 -3.59375 1.15625q-2.203125 0 -3.578125 -0.890625q-1.375 -0.90625 -2.09375 -2.59375q-0.71875 -1.703125 -0.71875 -3.65625q0 -2.125 0.796875 -3.703125q0.8125 -1.578125 2.3125 -2.390625q1.5 -0.828125 3.296875 -0.828125q2.046875 0 3.4375 1.046875q1.390625 1.03125 1.9375 2.90625l-1.765625 0.421875q-0.46875 -1.484375 -1.375 -2.15625q-0.90625 -0.6875 -2.265625 -0.6875q-1.5625 0 -2.625 0.75q-1.046875 0.75 -1.484375 2.03125q-0.421875 1.265625 -0.421875 2.609375q0 1.734375 0.5 3.03125q0.515625 1.28125 1.578125 1.921875q1.078125 0.640625 2.3125 0.640625q1.515625 0 2.5625 -0.859375q1.046875 -0.875 1.421875 -2.59375zm3.8010712 4.765625l0 -13.59375l9.84375 0l0 1.59375l-8.046875 0l0 4.171875l7.53125 0l0 1.59375l-7.53125 0l0 4.625l8.359375 0l0 1.609375l-10.15625 0zm12.412323 0l0 -13.59375l5.125 0q1.359375 0 2.078125 0.125q1.0 0.171875 1.671875 0.640625q0.671875 0.46875 1.078125 1.3125q0.421875 0.84375 0.421875 1.84375q0 1.734375 -1.109375 2.9375q-1.09375 1.203125 -3.984375 1.203125l-3.484375 0l0 5.53125l-1.796875 0zm1.796875 -7.140625l3.515625 0q1.75 0 2.46875 -0.640625q0.734375 -0.65625 0.734375 -1.828125q0 -0.859375 -0.4375 -1.46875q-0.421875 -0.609375 -1.125 -0.796875q-0.453125 -0.125 -1.671875 -0.125l-3.484375 0l0 4.859375zm14.099823 7.140625l0 -12.0l-4.46875 0l0 -1.59375l10.765625 0l0 1.59375l-4.5 0l0 12.0l-1.796875 0zm7.974106 0l0 -13.59375l9.84375 0l0 1.59375l-8.046875 0l0 4.171875l7.53125 0l0 1.59375l-7.53125 0l0 4.625l8.359375 0l0 1.609375l-10.15625 0zm12.412323 0l0 -13.59375l4.6875 0q1.578125 0 2.421875 0.1875q1.15625 0.265625 1.984375 0.96875q1.078125 0.921875 1.609375 2.34375q0.53125 1.40625 0.53125 3.21875q0 1.546875 -0.359375 2.75q-0.359375 1.1875 -0.921875 1.984375q-0.5625 0.78125 -1.234375 1.234375q-0.671875 0.4375 -1.625 0.671875q-0.953125 0.234375 -2.1875 0.234375l-4.90625 0zm1.796875 -1.609375l2.90625 0q1.34375 0 2.109375 -0.25q0.765625 -0.25 1.21875 -0.703125q0.640625 -0.640625 1.0 -1.71875q0.359375 -1.078125 0.359375 -2.625q0 -2.125 -0.703125 -3.265625q-0.703125 -1.15625 -1.703125 -1.546875q-0.71875 -0.28125 -2.328125 -0.28125l-2.859375 0l0 10.390625z" fill-rule="nonzero"></path><path fill="#000000" d="m21.234663 389.71005q0.71875 -0.03125 1.15625 -0.390625q0.453125 -0.359375 0.59375 -1.0q0.15625 -0.640625 0.15625 -2.1875q0.015625 -1.5625 0.0625 -2.046875q0.09375 -0.78125 0.3125 -1.25q0.234375 -0.484375 0.5625 -0.765625q0.34375 -0.28125 0.859375 -0.421875q0.34375 -0.09375 1.140625 -0.09375l0.53125 0l0 1.453125l-0.296875 0q-0.96875 0 -1.28125 0.34375q-0.3125 0.34375 -0.3125 1.5625q0 2.421875 -0.09375 3.0625q-0.171875 1.0 -0.578125 1.546875q-0.40625 0.53125 -1.265625 0.9375q1.015625 0.4375 1.46875 1.3125q0.46875 0.875 0.46875 2.859375q0 1.8125 0.03125 2.15625q0.078125 0.640625 0.375 0.890625q0.3125 0.25 1.1875 0.25l0.296875 0l0 1.453125l-0.53125 0q-0.90625 0 -1.3125 -0.15625q-0.59375 -0.203125 -0.984375 -0.6875q-0.390625 -0.46875 -0.515625 -1.203125q-0.109375 -0.734375 -0.125 -2.40625q0 -1.671875 -0.15625 -2.3125q-0.140625 -0.640625 -0.59375 -1.0q-0.4375 -0.375 -1.15625 -0.40625l0 -1.5z" fill-rule="nonzero"></path><path fill="#000000" d="m33.63252 406.06943l0 1.9375l-1.7968731 0l0 -1.53125q0 -1.25 0.2968731 -1.796875q0.390625 -0.75 1.234375 -1.125l0.40625 0.640625q-0.5 0.21875 -0.75 0.640625q-0.234375 0.421875 -0.265625 1.234375l0.875 0zm2.875 0l0 1.9375l-1.796875 0l0 -1.53125q0 -1.25 0.296875 -1.796875q0.390625 -0.75 1.234375 -1.125l0.40625 0.640625q-0.5 0.21875 -0.75 0.640625q-0.234375 0.421875 -0.265625 1.234375l0.875 0zm5.681427 9.8125l0.234375 1.484375q-0.703125 0.140625 -1.265625 0.140625q-0.90625 0 -1.40625 -0.28125q-0.5 -0.296875 -0.703125 -0.75q-0.203125 -0.46875 -0.203125 -1.984375l0 -5.65625l-1.234375 0l0 -1.3125l1.234375 0l0 -2.4375l1.65625 -1.0l0 3.4375l1.6875 0l0 1.3125l-1.6875 0l0 5.75q0 0.71875 0.078125 0.921875q0.09375 0.203125 0.296875 0.328125q0.203125 0.125 0.578125 0.125q0.265625 0 0.734375 -0.078125zm7.964554 0.28125q-0.9375 0.796875 -1.796875 1.125q-0.859375 0.3125 -1.84375 0.3125q-1.609375 0 -2.484375 -0.78125q-0.875 -0.796875 -0.875 -2.03125q0 -0.734375 0.328125 -1.328125q0.328125 -0.59375 0.859375 -0.953125q0.53125 -0.359375 1.203125 -0.546875q0.5 -0.140625 1.484375 -0.25q2.03125 -0.25 2.984375 -0.578125q0 -0.34375 0 -0.4375q0 -1.015625 -0.46875 -1.4375q-0.640625 -0.5625 -1.90625 -0.5625q-1.171875 0 -1.734375 0.40625q-0.5625 0.40625 -0.828125 1.46875l-1.640625 -0.234375q0.234375 -1.046875 0.734375 -1.6875q0.515625 -0.640625 1.46875 -0.984375q0.96875 -0.359375 2.25 -0.359375q1.265625 0 2.046875 0.296875q0.78125 0.296875 1.15625 0.75q0.375 0.453125 0.515625 1.140625q0.09375 0.421875 0.09375 1.53125l0 2.234375q0 2.328125 0.09375 2.953125q0.109375 0.609375 0.4375 1.171875l-1.75 0q-0.265625 -0.515625 -0.328125 -1.21875zm-0.140625 -3.71875q-0.90625 0.359375 -2.734375 0.625q-1.03125 0.140625 -1.453125 0.328125q-0.421875 0.1875 -0.65625 0.546875q-0.234375 0.359375 -0.234375 0.796875q0 0.671875 0.5 1.125q0.515625 0.4375 1.484375 0.4375q0.96875 0 1.71875 -0.421875q0.75 -0.4375 1.109375 -1.15625q0.265625 -0.578125 0.265625 -1.671875l0 -0.609375zm3.4069672 2.0l1.65625 -0.265625q0.140625 1.0 0.765625 1.53125q0.640625 0.515625 1.78125 0.515625q1.15625 0 1.703125 -0.46875q0.5625 -0.46875 0.5625 -1.09375q0 -0.5625 -0.484375 -0.890625q-0.34375 -0.21875 -1.703125 -0.5625q-1.84375 -0.46875 -2.5625 -0.796875q-0.703125 -0.34375 -1.078125 -0.9375q-0.359375 -0.609375 -0.359375 -1.328125q0 -0.65625 0.296875 -1.21875q0.3125 -0.5625 0.828125 -0.9375q0.390625 -0.28125 1.0625 -0.484375q0.671875 -0.203125 1.4375 -0.203125q1.171875 0 2.046875 0.34375q0.875 0.328125 1.28125 0.90625q0.421875 0.5625 0.578125 1.515625l-1.625 0.21875q-0.109375 -0.75 -0.65625 -1.171875q-0.53125 -0.4375 -1.5 -0.4375q-1.15625 0 -1.640625 0.390625q-0.484375 0.375 -0.484375 0.875q0 0.328125 0.203125 0.59375q0.203125 0.265625 0.640625 0.4375q0.25 0.09375 1.46875 0.4375q1.765625 0.46875 2.46875 0.765625q0.703125 0.296875 1.09375 0.875q0.40625 0.578125 0.40625 1.4375q0 0.828125 -0.484375 1.578125q-0.484375 0.734375 -1.40625 1.140625q-0.921875 0.390625 -2.078125 0.390625q-1.921875 0 -2.9375 -0.796875q-1.0 -0.796875 -1.28125 -2.359375zm10.015625 2.9375l0 -13.59375l1.6718788 0l0 7.75l3.953125 -4.015625l2.15625 0l-3.765625 3.65625l4.140625 6.203125l-2.0625 0l-3.25 -5.03125l-1.171875 1.125l0 3.90625l-1.6718788 0zm7.781254 3.78125l0 -1.21875l11.0625 0l0 1.21875l-11.0625 0zm11.922592 -15.46875l0 -1.90625l1.671875 0l0 1.90625l-1.671875 0zm0 11.6875l0 -9.859375l1.671875 0l0 9.859375l-1.671875 0zm10.519821 0l0 -1.25q-0.9375 1.46875 -2.75 1.46875q-1.171875 0 -2.171875 -0.640625q-0.984375 -0.65625 -1.53125 -1.8125q-0.53125 -1.171875 -0.53125 -2.6875q0 -1.46875 0.484375 -2.671875q0.5 -1.203125 1.46875 -1.84375q0.984375 -0.640625 2.203125 -0.640625q0.890625 0 1.578125 0.375q0.703125 0.375 1.140625 0.984375l0 -4.875l1.65625 0l0 13.59375l-1.546875 0zm-5.28125 -4.921875q0 1.890625 0.796875 2.828125q0.8125 0.9375 1.890625 0.9375q1.09375 0 1.859375 -0.890625q0.765625 -0.890625 0.765625 -2.734375q0 -2.015625 -0.78125 -2.953125q-0.78125 -0.953125 -1.921875 -0.953125q-1.109375 0 -1.859375 0.90625q-0.75 0.90625 -0.75 2.859375zm8.828842 -6.875l0 -1.9375l1.78125 0l0 1.53125q0 1.234375 -0.28125 1.78125q-0.40625 0.75 -1.25 1.140625l-0.40625 -0.671875q0.5 -0.203125 0.75 -0.640625q0.25 -0.4375 0.265625 -1.203125l-0.859375 0zm2.875 0l0 -1.9375l1.78125 0l0 1.53125q0 1.234375 -0.28125 1.78125q-0.40625 0.75 -1.25 1.140625l-0.40625 -0.671875q0.5 -0.203125 0.75 -0.640625q0.25 -0.4375 0.28125 -1.203125l-0.875 0zm4.243927 3.84375l0 -1.90625l1.90625 0l0 1.90625l-1.90625 0zm0 7.953125l0 -1.90625l1.90625 0l0 1.90625l-1.90625 0zm11.210358 -11.3125l0 1.9375l-1.796875 0l0 -1.53125q0 -1.25 0.296875 -1.796875q0.390625 -0.75 1.234375 -1.125l0.40625 0.640625q-0.5 0.21875 -0.75 0.640625q-0.234375 0.421875 -0.265625 1.234375l0.875 0zm2.875 0l0 1.9375l-1.796875 0l0 -1.53125q0 -1.25 0.296875 -1.796875q0.390625 -0.75 1.234375 -1.125l0.40625 0.640625q-0.5 0.21875 -0.75 0.640625q-0.234375 0.421875 -0.265625 1.234375l0.875 0zm7.853302 11.3125l-1.671875 0l0 -10.640625q-0.59375 0.578125 -1.578125 1.15625q-0.984375 0.5625 -1.765625 0.859375l0 -1.625q1.40625 -0.65625 2.453125 -1.59375q1.046875 -0.9375 1.484375 -1.8125l1.078125 0l0 13.65625zm12.860092 -1.609375l0 1.609375l-8.984375 0q-0.015625 -0.609375 0.1875 -1.15625q0.34375 -0.921875 1.09375 -1.8125q0.765625 -0.890625 2.1875 -2.0625q2.21875 -1.8125 3.0 -2.875q0.78125 -1.0625 0.78125 -2.015625q0 -0.984375 -0.71875 -1.671875q-0.703125 -0.6875 -1.84375 -0.6875q-1.203125 0 -1.9375 0.734375q-0.71875 0.71875 -0.71875 2.0l-1.71875 -0.171875q0.171875 -1.921875 1.328125 -2.921875q1.15625 -1.015625 3.09375 -1.015625q1.953125 0 3.09375 1.09375q1.140625 1.078125 1.140625 2.6875q0 0.8125 -0.34375 1.609375q-0.328125 0.78125 -1.109375 1.65625q-0.765625 0.859375 -2.5625 2.390625q-1.5 1.265625 -1.9375 1.71875q-0.421875 0.4375 -0.703125 0.890625l6.671875 0zm1.6100922 -1.984375l1.671875 -0.21875q0.28125 1.421875 0.96875 2.046875q0.703125 0.625 1.6875 0.625q1.1875 0 2.0 -0.8125q0.8125 -0.828125 0.8125 -2.03125q0 -1.140625 -0.765625 -1.890625q-0.75 -0.75 -1.90625 -0.75q-0.46875 0 -1.171875 0.1875l0.1875 -1.46875q0.15625 0.015625 0.265625 0.015625q1.0625 0 1.90625 -0.546875q0.859375 -0.5625 0.859375 -1.71875q0 -0.921875 -0.625 -1.515625q-0.609375 -0.609375 -1.59375 -0.609375q-0.96875 0 -1.625 0.609375q-0.640625 0.609375 -0.828125 1.84375l-1.671875 -0.296875q0.296875 -1.6875 1.375 -2.609375q1.09375 -0.921875 2.71875 -0.921875q1.109375 0 2.046875 0.484375q0.9375 0.46875 1.421875 1.296875q0.5 0.828125 0.5 1.75q0 0.890625 -0.46875 1.609375q-0.46875 0.71875 -1.40625 1.15625q1.21875 0.265625 1.875 1.15625q0.671875 0.875 0.671875 2.1875q0 1.78125 -1.296875 3.015625q-1.296875 1.234375 -3.28125 1.234375q-1.796875 0 -2.984375 -1.0625q-1.171875 -1.0625 -1.34375 -2.765625zm15.719467 3.59375l0 -3.25l-5.90625 0l0 -1.53125l6.21875 -8.8125l1.359375 0l0 8.8125l1.84375 0l0 1.53125l-1.84375 0l0 3.25l-1.671875 0zm0 -4.78125l0 -6.140625l-4.25 6.140625l4.25 0zm5.016342 1.21875l1.765625 -0.15625q0.1875 1.28125 0.890625 1.9375q0.71875 0.640625 1.71875 0.640625q1.203125 0 2.03125 -0.90625q0.84375 -0.90625 0.84375 -2.421875q0 -1.421875 -0.8125 -2.25q-0.796875 -0.828125 -2.09375 -0.828125q-0.796875 0 -1.453125 0.375q-0.640625 0.359375 -1.015625 0.953125l-1.578125 -0.203125l1.328125 -7.0l6.765625 0l0 1.609375l-5.4375 0l-0.734375 3.640625q1.234375 -0.84375 2.578125 -0.84375q1.78125 0 3.0 1.234375q1.234375 1.234375 1.234375 3.171875q0 1.84375 -1.078125 3.1875q-1.3125 1.65625 -3.578125 1.65625q-1.859375 0 -3.03125 -1.03125q-1.171875 -1.046875 -1.34375 -2.765625zm10.406967 -8.234375l0 -1.9375l1.78125 0l0 1.53125q0 1.234375 -0.28125 1.78125q-0.40625 0.75 -1.25 1.140625l-0.40625 -0.671875q0.5 -0.203125 0.75 -0.640625q0.25 -0.4375 0.265625 -1.203125l-0.859375 0zm2.875 0l0 -1.9375l1.78125 0l0 1.53125q0 1.234375 -0.28125 1.78125q-0.40625 0.75 -1.25 1.140625l-0.40625 -0.671875q0.5 -0.203125 0.75 -0.640625q0.25 -0.4375 0.28125 -1.203125l-0.875 0z" fill-rule="nonzero"></path><path fill="#000000" d="m26.515913 433.71005l0 1.5q-0.71875 0.03125 -1.171875 0.40625q-0.453125 0.359375 -0.609375 1.0q-0.140625 0.625 -0.15625 2.1875q0 1.546875 -0.046875 2.03125q-0.078125 0.796875 -0.3125 1.265625q-0.21875 0.46875 -0.5625 0.75q-0.328125 0.28125 -0.84375 0.421875q-0.359375 0.109375 -1.15625 0.109375l-0.515625 0l0 -1.453125l0.28125 0q0.96875 0 1.28125 -0.359375q0.3125 -0.34375 0.3125 -1.5625q0 -2.3125 0.09375 -2.9375q0.140625 -1.03125 0.578125 -1.640625q0.453125 -0.625 1.28125 -0.96875q-1.078125 -0.5 -1.515625 -1.34375q-0.4375 -0.84375 -0.4375 -2.828125q0 -1.8125 -0.046875 -2.171875q-0.0625 -0.625 -0.359375 -0.859375q-0.296875 -0.25 -1.1875 -0.25l-0.28125 0l0 -1.453125l0.515625 0q0.90625 0 1.3125 0.140625q0.59375 0.203125 0.984375 0.6875q0.390625 0.484375 0.5 1.21875q0.125 0.734375 0.125 2.40625q0.015625 1.671875 0.15625 2.3125q0.15625 0.625 0.609375 1.0q0.453125 0.359375 1.171875 0.390625z" fill-rule="nonzero"></path><path fill="#000000" fill-opacity="0.0" d="m396.47507 125.855644l155.99997 0l0 45.22834l-155.99997 0z" fill-rule="nonzero"></path><path fill="#000000" d="m406.70944 152.77563l0 -9.859375l1.5 0l0 1.5q0.578125 -1.046875 1.0625 -1.375q0.484375 -0.34375 1.078125 -0.34375q0.84375 0 1.71875 0.546875l-0.578125 1.546875q-0.609375 -0.359375 -1.234375 -0.359375q-0.546875 0 -0.984375 0.328125q-0.421875 0.328125 -0.609375 0.90625q-0.28125 0.890625 -0.28125 1.953125l0 5.15625l-1.671875 0zm12.978302 -3.171875l1.71875 0.21875q-0.40625 1.5 -1.515625 2.34375q-1.09375 0.828125 -2.8125 0.828125q-2.15625 0 -3.421875 -1.328125q-1.265625 -1.328125 -1.265625 -3.734375q0 -2.484375 1.265625 -3.859375q1.28125 -1.375 3.328125 -1.375q1.984375 0 3.234375 1.34375q1.25 1.34375 1.25 3.796875q0 0.140625 -0.015625 0.4375l-7.34375 0q0.09375 1.625 0.921875 2.484375q0.828125 0.859375 2.0625 0.859375q0.90625 0 1.546875 -0.46875q0.65625 -0.484375 1.046875 -1.546875zm-5.484375 -2.703125l5.5 0q-0.109375 -1.234375 -0.625 -1.859375q-0.796875 -0.96875 -2.078125 -0.96875q-1.140625 0 -1.9375 0.78125q-0.78125 0.765625 -0.859375 2.046875zm8.438202 2.9375l1.65625 -0.265625q0.140625 1.0 0.765625 1.53125q0.640625 0.515625 1.78125 0.515625q1.15625 0 1.703125 -0.46875q0.5625 -0.46875 0.5625 -1.09375q0 -0.5625 -0.484375 -0.890625q-0.34375 -0.21875 -1.703125 -0.5625q-1.84375 -0.46875 -2.5625 -0.796875q-0.703125 -0.34375 -1.078125 -0.9375q-0.359375 -0.609375 -0.359375 -1.328125q0 -0.65625 0.296875 -1.21875q0.3125 -0.5625 0.828125 -0.9375q0.390625 -0.28125 1.0625 -0.484375q0.671875 -0.203125 1.4375 -0.203125q1.171875 0 2.046875 0.34375q0.875 0.328125 1.28125 0.90625q0.421875 0.5625 0.578125 1.515625l-1.625 0.21875q-0.109375 -0.75 -0.65625 -1.171875q-0.53125 -0.4375 -1.5 -0.4375q-1.15625 0 -1.640625 0.390625q-0.484375 0.375 -0.484375 0.875q0 0.328125 0.203125 0.59375q0.203125 0.265625 0.640625 0.4375q0.25 0.09375 1.46875 0.4375q1.765625 0.46875 2.46875 0.765625q0.703125 0.296875 1.09375 0.875q0.40625 0.578125 0.40625 1.4375q0 0.828125 -0.484375 1.578125q-0.484375 0.734375 -1.40625 1.140625q-0.921875 0.390625 -2.078125 0.390625q-1.921875 0 -2.9375 -0.796875q-1.0 -0.796875 -1.28125 -2.359375zm16.453125 2.9375l0 -1.453125q-1.140625 1.671875 -3.125 1.671875q-0.859375 0 -1.625 -0.328125q-0.75 -0.34375 -1.125 -0.84375q-0.359375 -0.5 -0.515625 -1.234375q-0.09375 -0.5 -0.09375 -1.5625l0 -6.109375l1.671875 0l0 5.46875q0 1.3125 0.09375 1.765625q0.15625 0.65625 0.671875 1.03125q0.515625 0.375 1.265625 0.375q0.75 0 1.40625 -0.375q0.65625 -0.390625 0.921875 -1.046875q0.28125 -0.671875 0.28125 -1.9375l0 -5.28125l1.671875 0l0 9.859375l-1.5 0zm3.8913574 0l0 -13.59375l1.671875 0l0 13.59375l-1.671875 0zm7.832306 -1.5l0.234375 1.484375q-0.703125 0.140625 -1.265625 0.140625q-0.90625 0 -1.40625 -0.28125q-0.5 -0.296875 -0.703125 -0.75q-0.203125 -0.46875 -0.203125 -1.984375l0 -5.65625l-1.234375 0l0 -1.3125l1.234375 0l0 -2.4375l1.65625 -1.0l0 3.4375l1.6875 0l0 1.3125l-1.6875 0l0 5.75q0 0.71875 0.078125 0.921875q0.09375 0.203125 0.296875 0.328125q0.203125 0.125 0.578125 0.125q0.265625 0 0.734375 -0.078125zm15.491608 -6.5l-8.96875 0l0 -1.5625l8.96875 0l0 1.5625zm0 4.125l-8.96875 0l0 -1.546875l8.96875 0l0 1.546875zm8.609528 -7.4375l0 1.9375l-1.796875 0l0 -1.53125q0 -1.25 0.296875 -1.796875q0.390625 -0.75 1.234375 -1.125l0.40625 0.640625q-0.5 0.21875 -0.75 0.640625q-0.234375 0.421875 -0.265625 1.234375l0.875 0zm2.875 0l0 1.9375l-1.796875 0l0 -1.53125q0 -1.25 0.296875 -1.796875q0.390625 -0.75 1.234375 -1.125l0.40625 0.640625q-0.5 0.21875 -0.75 0.640625q-0.234375 0.421875 -0.265625 1.234375l0.875 0zm2.431427 11.3125l0 -8.546875l-1.484375 0l0 -1.3125l1.484375 0l0 -1.046875q0 -0.984375 0.171875 -1.46875q0.234375 -0.65625 0.84375 -1.046875q0.609375 -0.40625 1.703125 -0.40625q0.703125 0 1.5625 0.15625l-0.25 1.46875q-0.515625 -0.09375 -0.984375 -0.09375q-0.765625 0 -1.078125 0.328125q-0.3125 0.3125 -0.3125 1.203125l0 0.90625l1.921875 0l0 1.3125l-1.921875 0l0 8.546875l-1.65625 0zm4.1520386 -4.921875q0 -2.734375 1.53125 -4.0625q1.265625 -1.09375 3.09375 -1.09375q2.03125 0 3.3125 1.34375q1.296875 1.328125 1.296875 3.671875q0 1.90625 -0.578125 3.0q-0.5625 1.078125 -1.65625 1.6875q-1.078125 0.59375 -2.375 0.59375q-2.0625 0 -3.34375 -1.328125q-1.28125 -1.328125 -1.28125 -3.8125zm1.71875 0q0 1.890625 0.828125 2.828125q0.828125 0.9375 2.078125 0.9375q1.25 0 2.0625 -0.9375q0.828125 -0.953125 0.828125 -2.890625q0 -1.828125 -0.828125 -2.765625q-0.828125 -0.9375 -2.0625 -0.9375q-1.25 0 -2.078125 0.9375q-0.828125 0.9375 -0.828125 2.828125zm8.656982 0q0 -2.734375 1.53125 -4.0625q1.265625 -1.09375 3.09375 -1.09375q2.03125 0 3.3125 1.34375q1.296875 1.328125 1.296875 3.671875q0 1.90625 -0.578125 3.0q-0.5625 1.078125 -1.65625 1.6875q-1.078125 0.59375 -2.375 0.59375q-2.0625 0 -3.34375 -1.328125q-1.28125 -1.328125 -1.28125 -3.8125zm1.71875 0q0 1.890625 0.828125 2.828125q0.828125 0.9375 2.078125 0.9375q1.25 0 2.0625 -0.9375q0.828125 -0.953125 0.828125 -2.890625q0 -1.828125 -0.828125 -2.765625q-0.828125 -0.9375 -2.0625 -0.9375q-1.25 0 -2.078125 0.9375q-0.828125 0.9375 -0.828125 2.828125zm8.844452 -6.875l0 -1.9375l1.78125 0l0 1.53125q0 1.234375 -0.28125 1.78125q-0.40625 0.75 -1.25 1.140625l-0.40625 -0.671875q0.5 -0.203125 0.75 -0.640625q0.25 -0.4375 0.265625 -1.203125l-0.859375 0zm2.875 0l0 -1.9375l1.78125 0l0 1.53125q0 1.234375 -0.28125 1.78125q-0.40625 0.75 -1.25 1.140625l-0.40625 -0.671875q0.5 -0.203125 0.75 -0.640625q0.25 -0.4375 0.28125 -1.203125l-0.875 0z" fill-rule="nonzero"></path><path fill="#000000" fill-opacity="0.0" d="m408.93176 286.15485l-170.92914 184.0" fill-rule="nonzero"></path><path stroke="#000000" stroke-width="2.0" stroke-linejoin="round" stroke-linecap="butt" d="m400.76453 294.94666l-162.7619 175.20819" fill-rule="evenodd"></path><path fill="#000000" stroke="#000000" stroke-width="2.0" stroke-linecap="butt" d="m403.18478 297.195l3.757019 -8.89801l-8.597595 4.401306z" fill-rule="evenodd"></path><path fill="#fff2cc" d="m467.3832 62.92651l83.543304 -52.157482l83.543274 52.157482l-83.543274 52.157482z" fill-rule="nonzero"></path><path stroke="#000000" stroke-width="2.0" stroke-linejoin="round" stroke-linecap="butt" d="m467.3832 62.92651l83.543304 -52.157482l83.543274 52.157482l-83.543274 52.157482z" fill-rule="nonzero"></path><path fill="#000000" d="m531.9424 58.846508l0 -9.859375l1.5 0l0 1.5q0.578125 -1.046875 1.0625 -1.375q0.484375 -0.34375 1.078125 -0.34375q0.84375 0 1.71875 0.546875l-0.578125 1.546875q-0.609375 -0.359375 -1.234375 -0.359375q-0.546875 0 -0.984375 0.328125q-0.421875 0.328125 -0.609375 0.90625q-0.28125 0.890625 -0.28125 1.953125l0 5.15625l-1.671875 0zm12.9782715 -3.171875l1.71875 0.21875q-0.40625 1.5 -1.515625 2.34375q-1.09375 0.828125 -2.8125 0.828125q-2.15625 0 -3.421875 -1.328125q-1.265625 -1.328125 -1.265625 -3.734375q0 -2.484375 1.265625 -3.859375q1.28125 -1.375 3.328125 -1.375q1.984375 0 3.234375 1.34375q1.25 1.34375 1.25 3.796875q0 0.140625 -0.015625 0.4375l-7.34375 0q0.09375 1.625 0.921875 2.484375q0.828125 0.859375 2.0625 0.859375q0.90625 0 1.546875 -0.46875q0.65625 -0.484375 1.046875 -1.546875zm-5.484375 -2.703125l5.5 0q-0.109375 -1.234375 -0.625 -1.859375q-0.796875 -0.96875 -2.078125 -0.96875q-1.140625 0 -1.9375 0.78125q-0.78125 0.765625 -0.859375 2.046875zm15.500732 5.875l0 -1.25q-0.9375 1.46875 -2.75 1.46875q-1.171875 0 -2.171875 -0.640625q-0.984375 -0.65625 -1.53125 -1.8125q-0.53125 -1.171875 -0.53125 -2.6875q0 -1.46875 0.484375 -2.671875q0.5 -1.203125 1.46875 -1.84375q0.984375 -0.640625 2.203125 -0.640625q0.890625 0 1.578125 0.375q0.703125 0.375 1.140625 0.984375l0 -4.875l1.65625 0l0 13.59375l-1.546875 0zm-5.28125 -4.921875q0 1.890625 0.796875 2.828125q0.8125 0.9375 1.890625 0.9375q1.09375 0 1.859375 -0.890625q0.765625 -0.890625 0.765625 -2.734375q0 -2.015625 -0.78125 -2.953125q-0.78125 -0.953125 -1.921875 -0.953125q-1.109375 0 -1.859375 0.90625q-0.75 0.90625 -0.75 2.859375zm9.281982 -6.765625l0 -1.90625l1.671875 0l0 1.90625l-1.671875 0zm0 11.6875l0 -9.859375l1.671875 0l0 9.859375l-1.671875 0zm3.4572754 -2.9375l1.65625 -0.265625q0.140625 1.0 0.765625 1.53125q0.640625 0.515625 1.78125 0.515625q1.15625 0 1.703125 -0.46875q0.5625 -0.46875 0.5625 -1.09375q0 -0.5625 -0.484375 -0.890625q-0.34375 -0.21875 -1.703125 -0.5625q-1.84375 -0.46875 -2.5625 -0.796875q-0.703125 -0.34375 -1.078125 -0.9375q-0.359375 -0.609375 -0.359375 -1.328125q0 -0.65625 0.296875 -1.21875q0.3125 -0.5625 0.828125 -0.9375q0.390625 -0.28125 1.0625 -0.484375q0.671875 -0.203125 1.4375 -0.203125q1.171875 0 2.046875 0.34375q0.875 0.328125 1.28125 0.90625q0.421875 0.5625 0.578125 1.515625l-1.625 0.21875q-0.109375 -0.75 -0.65625 -1.171875q-0.53125 -0.4375 -1.5 -0.4375q-1.15625 0 -1.640625 0.390625q-0.484375 0.375 -0.484375 0.875q0 0.328125 0.203125 0.59375q0.203125 0.265625 0.640625 0.4375q0.25 0.09375 1.46875 0.4375q1.765625 0.46875 2.46875 0.765625q0.703125 0.296875 1.09375 0.875q0.40625 0.578125 0.40625 1.4375q0 0.828125 -0.484375 1.578125q-0.484375 0.734375 -1.40625 1.140625q-0.921875 0.390625 -2.078125 0.390625q-1.921875 0 -2.9375 -0.796875q-1.0 -0.796875 -1.28125 -2.359375z" fill-rule="nonzero"></path><path fill="#000000" d="m521.5732 84.627754l0 -13.640625l1.53125 0l0 1.28125q0.53125 -0.75 1.203125 -1.125q0.6875 -0.375 1.640625 -0.375q1.265625 0 2.234375 0.65625q0.96875 0.640625 1.453125 1.828125q0.5 1.1875 0.5 2.59375q0 1.515625 -0.546875 2.734375q-0.546875 1.203125 -1.578125 1.84375q-1.03125 0.640625 -2.171875 0.640625q-0.84375 0 -1.515625 -0.34375q-0.65625 -0.359375 -1.078125 -0.890625l0 4.796875l-1.671875 0zm1.515625 -8.65625q0 1.90625 0.765625 2.8125q0.78125 0.90625 1.875 0.90625q1.109375 0 1.890625 -0.9375q0.796875 -0.9375 0.796875 -2.921875q0 -1.875 -0.78125 -2.8125q-0.765625 -0.9375 -1.84375 -0.9375q-1.0625 0 -1.890625 1.0q-0.8125 1.0 -0.8125 2.890625zm15.313171 4.875l0 -1.453125q-1.140625 1.671875 -3.125 1.671875q-0.859375 0 -1.625 -0.328125q-0.75 -0.34375 -1.125 -0.84375q-0.359375 -0.5 -0.515625 -1.234375q-0.09375 -0.5 -0.09375 -1.5625l0 -6.109375l1.671875 0l0 5.46875q0 1.3125 0.09375 1.765625q0.15625 0.65625 0.671875 1.03125q0.515625 0.375 1.265625 0.375q0.75 0 1.40625 -0.375q0.65625 -0.390625 0.921875 -1.046875q0.28125 -0.671875 0.28125 -1.9375l0 -5.28125l1.671875 0l0 9.859375l-1.5 0zm5.4694824 0l-1.546875 0l0 -13.59375l1.65625 0l0 4.84375q1.0625 -1.328125 2.703125 -1.328125q0.90625 0 1.71875 0.375q0.8125 0.359375 1.328125 1.03125q0.53125 0.65625 0.828125 1.59375q0.296875 0.9375 0.296875 2.0q0 2.53125 -1.25 3.921875q-1.25 1.375 -3.0 1.375q-1.75 0 -2.734375 -1.453125l0 1.234375zm-0.015625 -5.0q0 1.765625 0.46875 2.5625q0.796875 1.28125 2.140625 1.28125q1.09375 0 1.890625 -0.9375q0.796875 -0.953125 0.796875 -2.84375q0 -1.921875 -0.765625 -2.84375q-0.765625 -0.921875 -1.84375 -0.921875q-1.09375 0 -1.890625 0.953125q-0.796875 0.953125 -0.796875 2.75zm8.172607 2.0625l1.65625 -0.265625q0.140625 1.0 0.765625 1.53125q0.640625 0.515625 1.78125 0.515625q1.15625 0 1.703125 -0.46875q0.5625 -0.46875 0.5625 -1.09375q0 -0.5625 -0.484375 -0.890625q-0.34375 -0.21875 -1.703125 -0.5625q-1.84375 -0.46875 -2.5625 -0.796875q-0.703125 -0.34375 -1.078125 -0.9375q-0.359375 -0.609375 -0.359375 -1.328125q0 -0.65625 0.296875 -1.21875q0.3125 -0.5625 0.828125 -0.9375q0.390625 -0.28125 1.0625 -0.484375q0.671875 -0.203125 1.4375 -0.203125q1.171875 0 2.046875 0.34375q0.875 0.328125 1.28125 0.90625q0.421875 0.5625 0.578125 1.515625l-1.625 0.21875q-0.109375 -0.75 -0.65625 -1.171875q-0.53125 -0.4375 -1.5 -0.4375q-1.15625 0 -1.640625 0.390625q-0.484375 0.375 -0.484375 0.875q0 0.328125 0.203125 0.59375q0.203125 0.265625 0.640625 0.4375q0.25 0.09375 1.46875 0.4375q1.765625 0.46875 2.46875 0.765625q0.703125 0.296875 1.09375 0.875q0.40625 0.578125 0.40625 1.4375q0 0.828125 -0.484375 1.578125q-0.484375 0.734375 -1.40625 1.140625q-0.921875 0.390625 -2.078125 0.390625q-1.921875 0 -2.9375 -0.796875q-1.0 -0.796875 -1.28125 -2.359375zm16.453125 2.9375l0 -1.453125q-1.140625 1.671875 -3.125 1.671875q-0.859375 0 -1.625 -0.328125q-0.75 -0.34375 -1.125 -0.84375q-0.359375 -0.5 -0.515625 -1.234375q-0.09375 -0.5 -0.09375 -1.5625l0 -6.109375l1.671875 0l0 5.46875q0 1.3125 0.09375 1.765625q0.15625 0.65625 0.671875 1.03125q0.515625 0.375 1.265625 0.375q0.75 0 1.40625 -0.375q0.65625 -0.390625 0.921875 -1.046875q0.28125 -0.671875 0.28125 -1.9375l0 -5.28125l1.671875 0l0 9.859375l-1.5 0zm5.4694824 0l-1.546875 0l0 -13.59375l1.65625 0l0 4.84375q1.0625 -1.328125 2.703125 -1.328125q0.90625 0 1.71875 0.375q0.8125 0.359375 1.328125 1.03125q0.53125 0.65625 0.828125 1.59375q0.296875 0.9375 0.296875 2.0q0 2.53125 -1.25 3.921875q-1.25 1.375 -3.0 1.375q-1.75 0 -2.734375 -1.453125l0 1.234375zm-0.015625 -5.0q0 1.765625 0.46875 2.5625q0.796875 1.28125 2.140625 1.28125q1.09375 0 1.890625 -0.9375q0.796875 -0.953125 0.796875 -2.84375q0 -1.921875 -0.765625 -2.84375q-0.765625 -0.921875 -1.84375 -0.921875q-1.09375 0 -1.890625 0.953125q-0.796875 0.953125 -0.796875 2.75z" fill-rule="nonzero"></path><path fill="#000000" fill-opacity="0.0" d="m467.3832 62.92651l-55.527557 0" fill-rule="nonzero"></path><path stroke="#000000" stroke-width="2.0" stroke-linejoin="round" stroke-linecap="butt" d="m455.3832 62.92651l-43.527557 0" fill-rule="evenodd"></path><path fill="#000000" stroke="#000000" stroke-width="2.0" stroke-linecap="butt" d="m455.3832 66.22997l9.076202 -3.303463l-9.076202 -3.3034668z" fill-rule="evenodd"></path><path fill="#cfe2f3" d="m388.77167 216.72206l0 0c0 -7.5350037 6.108307 -13.643326 13.643311 -13.643326l139.79999 0c3.6184082 0 7.088623 1.4374237 9.647278 3.9960327c2.5585938 2.5586243 3.9960327 6.0288544 3.9960327 9.647293l0 54.57164c0 7.534973 -6.1083374 13.643311 -13.643311 13.643311l-139.79999 0c-7.5350037 0 -13.643311 -6.1083374 -13.643311 -13.643311z" fill-rule="nonzero"></path><path stroke="#000000" stroke-width="2.0" stroke-linejoin="round" stroke-linecap="butt" d="m388.77167 216.72206l0 0c0 -7.5350037 6.108307 -13.643326 13.643311 -13.643326l139.79999 0c3.6184082 0 7.088623 1.4374237 9.647278 3.9960327c2.5585938 2.5586243 3.9960327 6.0288544 3.9960327 9.647293l0 54.57164c0 7.534973 -6.1083374 13.643311 -13.643311 13.643311l-139.79999 0c-7.5350037 0 -13.643311 -6.1083374 -13.643311 -13.643311z" fill-rule="nonzero"></path><path fill="#000000" d="m436.0816 247.99037l1.65625 -0.265625q0.140625 1.0 0.765625 1.53125q0.640625 0.515625 1.78125 0.515625q1.15625 0 1.703125 -0.46875q0.5625 -0.46875 0.5625 -1.09375q0 -0.5625 -0.484375 -0.890625q-0.34375 -0.21875 -1.703125 -0.5625q-1.84375 -0.46875 -2.5625 -0.796875q-0.703125 -0.34375 -1.078125 -0.9375q-0.359375 -0.609375 -0.359375 -1.328125q0 -0.65625 0.296875 -1.21875q0.3125 -0.5625 0.828125 -0.9375q0.390625 -0.28125 1.0625 -0.484375q0.671875 -0.203125 1.4375 -0.203125q1.171875 0 2.046875 0.34375q0.875 0.328125 1.28125 0.90625q0.421875 0.5625 0.578125 1.515625l-1.625 0.21875q-0.109375 -0.75 -0.65625 -1.171875q-0.53125 -0.4375 -1.5 -0.4375q-1.15625 0 -1.640625 0.390625q-0.484375 0.375 -0.484375 0.875q0 0.328125 0.203125 0.59375q0.203125 0.265625 0.640625 0.4375q0.25 0.09375 1.46875 0.4375q1.765625 0.46875 2.46875 0.765625q0.703125 0.296875 1.09375 0.875q0.40625 0.578125 0.40625 1.4375q0 0.828125 -0.484375 1.578125q-0.484375 0.734375 -1.40625 1.140625q-0.921875 0.390625 -2.078125 0.390625q-1.921875 0 -2.9375 -0.796875q-1.0 -0.796875 -1.28125 -2.359375zm9.375 -1.984375q0 -2.734375 1.53125 -4.0625q1.265625 -1.09375 3.09375 -1.09375q2.03125 0 3.3125 1.34375q1.296875 1.328125 1.296875 3.671875q0 1.90625 -0.578125 3.0q-0.5625 1.078125 -1.65625 1.6875q-1.078125 0.59375 -2.375 0.59375q-2.0625 0 -3.34375 -1.328125q-1.28125 -1.328125 -1.28125 -3.8125zm1.71875 0q0 1.890625 0.828125 2.828125q0.828125 0.9375 2.078125 0.9375q1.25 0 2.0625 -0.9375q0.828125 -0.953125 0.828125 -2.890625q0 -1.828125 -0.828125 -2.765625q-0.828125 -0.9375 -2.0625 -0.9375q-1.25 0 -2.078125 0.9375q-0.828125 0.9375 -0.828125 2.828125zm15.719482 1.3125l1.640625 0.21875q-0.265625 1.6875 -1.375 2.65625q-1.109375 0.953125 -2.734375 0.953125q-2.015625 0 -3.25 -1.3125q-1.21875 -1.328125 -1.21875 -3.796875q0 -1.59375 0.515625 -2.78125q0.53125 -1.203125 1.609375 -1.796875q1.09375 -0.609375 2.359375 -0.609375q1.609375 0 2.625 0.8125q1.015625 0.8125 1.3125 2.3125l-1.625 0.25q-0.234375 -1.0 -0.828125 -1.5q-0.59375 -0.5 -1.421875 -0.5q-1.265625 0 -2.0625 0.90625q-0.78125 0.90625 -0.78125 2.859375q0 1.984375 0.765625 2.890625q0.765625 0.890625 1.984375 0.890625q0.984375 0 1.640625 -0.59375q0.65625 -0.609375 0.84375 -1.859375zm2.90625 3.609375l0 -13.59375l1.671875 0l0 7.75l3.953125 -4.015625l2.15625 0l-3.765625 3.65625l4.140625 6.203125l-2.0625 0l-3.25 -5.03125l-1.171875 1.125l0 3.90625l-1.671875 0zm16.0625 -3.171875l1.71875 0.21875q-0.40625 1.5 -1.515625 2.34375q-1.09375 0.828125 -2.8125 0.828125q-2.15625 0 -3.421875 -1.328125q-1.265625 -1.328125 -1.265625 -3.734375q0 -2.484375 1.265625 -3.859375q1.28125 -1.375 3.328125 -1.375q1.984375 0 3.234375 1.34375q1.25 1.34375 1.25 3.796875q0 0.140625 -0.015625 0.4375l-7.34375 0q0.09375 1.625 0.921875 2.484375q0.828125 0.859375 2.0625 0.859375q0.90625 0 1.546875 -0.46875q0.65625 -0.484375 1.046875 -1.546875zm-5.484375 -2.703125l5.5 0q-0.109375 -1.234375 -0.625 -1.859375q-0.796875 -0.96875 -2.078125 -0.96875q-1.140625 0 -1.9375 0.78125q-0.78125 0.765625 -0.859375 2.046875zm12.766327 4.375l0.234375 1.484375q-0.703125 0.140625 -1.265625 0.140625q-0.90625 0 -1.40625 -0.28125q-0.5 -0.296875 -0.703125 -0.75q-0.203125 -0.46875 -0.203125 -1.984375l0 -5.65625l-1.234375 0l0 -1.3125l1.234375 0l0 -2.4375l1.65625 -1.0l0 3.4375l1.6875 0l0 1.3125l-1.6875 0l0 5.75q0 0.71875 0.078125 0.921875q0.09375 0.203125 0.296875 0.328125q0.203125 0.125 0.578125 0.125q0.265625 0 0.734375 -0.078125zm1.9958191 1.5l0 -1.90625l1.90625 0l0 1.90625l-1.90625 0zm4.7301636 -11.6875l0 -1.90625l1.671875 0l0 1.90625l-1.671875 0zm0 11.6875l0 -9.859375l1.671875 0l0 9.859375l-1.671875 0zm3.5042114 -4.921875q0 -2.734375 1.53125 -4.0625q1.265625 -1.09375 3.09375 -1.09375q2.03125 0 3.3125 1.34375q1.296875 1.328125 1.296875 3.671875q0 1.90625 -0.578125 3.0q-0.5625 1.078125 -1.65625 1.6875q-1.078125 0.59375 -2.375 0.59375q-2.0625 0 -3.34375 -1.328125q-1.28125 -1.328125 -1.28125 -3.8125zm1.71875 0q0 1.890625 0.828125 2.828125q0.828125 0.9375 2.078125 0.9375q1.25 0 2.0625 -0.9375q0.828125 -0.953125 0.828125 -2.890625q0 -1.828125 -0.828125 -2.765625q-0.828125 -0.9375 -2.0625 -0.9375q-1.25 0 -2.078125 0.9375q-0.828125 0.9375 -0.828125 2.828125z" fill-rule="nonzero"></path><path fill="#000000" fill-opacity="0.0" d="m237.54593 311.3937l156.0 0l0 62.771637l-156.0 0z" fill-rule="nonzero"></path><path fill="#000000" d="m247.4053 333.9387l1.6875 -0.140625q0.125 1.015625 0.5625 1.671875q0.4375 0.65625 1.359375 1.0625q0.9375 0.40625 2.09375 0.40625q1.03125 0 1.8125 -0.3125q0.796875 -0.3125 1.1875 -0.84375q0.390625 -0.53125 0.390625 -1.15625q0 -0.640625 -0.375 -1.109375q-0.375 -0.484375 -1.234375 -0.8125q-0.546875 -0.21875 -2.421875 -0.65625q-1.875 -0.453125 -2.625 -0.859375q-0.96875 -0.515625 -1.453125 -1.265625q-0.46875 -0.75 -0.46875 -1.6875q0 -1.03125 0.578125 -1.921875q0.59375 -0.90625 1.703125 -1.359375q1.125 -0.46875 2.5 -0.46875q1.515625 0 2.671875 0.484375q1.15625 0.484375 1.765625 1.4375q0.625 0.9375 0.671875 2.140625l-1.71875 0.125q-0.140625 -1.28125 -0.953125 -1.9375q-0.796875 -0.671875 -2.359375 -0.671875q-1.625 0 -2.375 0.609375q-0.75 0.59375 -0.75 1.4375q0 0.734375 0.53125 1.203125q0.515625 0.46875 2.703125 0.96875q2.203125 0.5 3.015625 0.875q1.1875 0.546875 1.75 1.390625q0.578125 0.828125 0.578125 1.921875q0 1.09375 -0.625 2.0625q-0.625 0.953125 -1.796875 1.484375q-1.15625 0.53125 -2.609375 0.53125q-1.84375 0 -3.09375 -0.53125q-1.25 -0.546875 -1.96875 -1.625q-0.703125 -1.078125 -0.734375 -2.453125zm21.974823 -9.21875l1.796875 0l0 7.84375q0 2.0625 -0.46875 3.265625q-0.453125 1.203125 -1.671875 1.96875q-1.203125 0.75 -3.171875 0.75q-1.90625 0 -3.125 -0.65625q-1.21875 -0.65625 -1.734375 -1.90625q-0.515625 -1.25 -0.515625 -3.421875l0 -7.84375l1.796875 0l0 7.84375q0 1.765625 0.328125 2.609375q0.328125 0.84375 1.125 1.296875q0.8125 0.453125 1.96875 0.453125q1.984375 0 2.828125 -0.890625q0.84375 -0.90625 0.84375 -3.46875l0 -7.84375zm4.4729614 13.59375l0 -13.59375l5.109375 0q1.546875 0 2.484375 0.40625q0.953125 0.40625 1.484375 1.265625q0.53125 0.859375 0.53125 1.796875q0 0.875 -0.46875 1.65625q-0.46875 0.765625 -1.4375 1.234375q1.234375 0.359375 1.890625 1.234375q0.671875 0.875 0.671875 2.0625q0 0.953125 -0.40625 1.78125q-0.390625 0.8125 -0.984375 1.265625q-0.59375 0.4375 -1.5 0.671875q-0.890625 0.21875 -2.1875 0.21875l-5.1875 0zm1.796875 -7.890625l2.9375 0q1.203125 0 1.71875 -0.15625q0.6875 -0.203125 1.03125 -0.671875q0.359375 -0.46875 0.359375 -1.1875q0 -0.671875 -0.328125 -1.1875q-0.328125 -0.515625 -0.9375 -0.703125q-0.59375 -0.203125 -2.0625 -0.203125l-2.71875 0l0 4.109375zm0 6.28125l3.390625 0q0.875 0 1.21875 -0.0625q0.625 -0.109375 1.046875 -0.359375q0.421875 -0.265625 0.6875 -0.765625q0.265625 -0.5 0.265625 -1.140625q0 -0.765625 -0.390625 -1.328125q-0.390625 -0.5625 -1.078125 -0.78125q-0.6875 -0.234375 -1.984375 -0.234375l-3.15625 0l0 4.671875zm10.115448 -2.765625l1.6875 -0.140625q0.125 1.015625 0.5625 1.671875q0.4375 0.65625 1.359375 1.0625q0.9375 0.40625 2.09375 0.40625q1.03125 0 1.8125 -0.3125q0.796875 -0.3125 1.1875 -0.84375q0.390625 -0.53125 0.390625 -1.15625q0 -0.640625 -0.375 -1.109375q-0.375 -0.484375 -1.234375 -0.8125q-0.546875 -0.21875 -2.421875 -0.65625q-1.875 -0.453125 -2.625 -0.859375q-0.96875 -0.515625 -1.453125 -1.265625q-0.46875 -0.75 -0.46875 -1.6875q0 -1.03125 0.578125 -1.921875q0.59375 -0.90625 1.703125 -1.359375q1.125 -0.46875 2.5 -0.46875q1.515625 0 2.671875 0.484375q1.15625 0.484375 1.765625 1.4375q0.625 0.9375 0.671875 2.140625l-1.71875 0.125q-0.140625 -1.28125 -0.953125 -1.9375q-0.796875 -0.671875 -2.359375 -0.671875q-1.625 0 -2.375 0.609375q-0.75 0.59375 -0.75 1.4375q0 0.734375 0.53125 1.203125q0.515625 0.46875 2.703125 0.96875q2.203125 0.5 3.015625 0.875q1.1875 0.546875 1.75 1.390625q0.578125 0.828125 0.578125 1.921875q0 1.09375 -0.625 2.0625q-0.625 0.953125 -1.796875 1.484375q-1.15625 0.53125 -2.609375 0.53125q-1.84375 0 -3.09375 -0.53125q-1.25 -0.546875 -1.96875 -1.625q-0.703125 -1.078125 -0.734375 -2.453125zm22.756073 -0.390625l1.796875 0.453125q-0.5625 2.21875 -2.03125 3.390625q-1.46875 1.15625 -3.59375 1.15625q-2.203125 0 -3.578125 -0.890625q-1.375 -0.90625 -2.09375 -2.59375q-0.71875 -1.703125 -0.71875 -3.65625q0 -2.125 0.796875 -3.703125q0.8125 -1.578125 2.3125 -2.390625q1.5 -0.828125 3.296875 -0.828125q2.046875 0 3.4375 1.046875q1.390625 1.03125 1.9375 2.90625l-1.765625 0.421875q-0.46875 -1.484375 -1.375 -2.15625q-0.90625 -0.6875 -2.265625 -0.6875q-1.5625 0 -2.625 0.75q-1.046875 0.75 -1.484375 2.03125q-0.421875 1.265625 -0.421875 2.609375q0 1.734375 0.5 3.03125q0.515625 1.28125 1.578125 1.921875q1.078125 0.640625 2.3125 0.640625q1.515625 0 2.5625 -0.859375q1.046875 -0.875 1.421875 -2.59375zm3.801056 4.765625l0 -13.59375l6.03125 0q1.8125 0 2.75 0.359375q0.953125 0.359375 1.515625 1.296875q0.5625 0.921875 0.5625 2.046875q0 1.453125 -0.9375 2.453125q-0.921875 0.984375 -2.890625 1.25q0.71875 0.34375 1.09375 0.671875q0.78125 0.734375 1.484375 1.8125l2.375 3.703125l-2.265625 0l-1.796875 -2.828125q-0.796875 -1.21875 -1.3125 -1.875q-0.5 -0.65625 -0.90625 -0.90625q-0.40625 -0.265625 -0.8125 -0.359375q-0.3125 -0.078125 -1.015625 -0.078125l-2.078125 0l0 6.046875l-1.796875 0zm1.796875 -7.59375l3.859375 0q1.234375 0 1.921875 -0.25q0.703125 -0.265625 1.0625 -0.828125q0.375 -0.5625 0.375 -1.21875q0 -0.96875 -0.703125 -1.578125q-0.703125 -0.625 -2.21875 -0.625l-4.296875 0l0 4.5zm11.941711 7.59375l0 -13.59375l1.8125 0l0 13.59375l-1.8125 0zm4.8082886 0l0 -13.59375l5.109375 0q1.546875 0 2.484375 0.40625q0.953125 0.40625 1.484375 1.265625q0.53125 0.859375 0.53125 1.796875q0 0.875 -0.46875 1.65625q-0.46875 0.765625 -1.4375 1.234375q1.234375 0.359375 1.890625 1.234375q0.671875 0.875 0.671875 2.0625q0 0.953125 -0.40625 1.78125q-0.390625 0.8125 -0.984375 1.265625q-0.59375 0.4375 -1.5 0.671875q-0.890625 0.21875 -2.1875 0.21875l-5.1875 0zm1.796875 -7.890625l2.9375 0q1.203125 0 1.71875 -0.15625q0.6875 -0.203125 1.03125 -0.671875q0.359375 -0.46875 0.359375 -1.1875q0 -0.671875 -0.328125 -1.1875q-0.328125 -0.515625 -0.9375 -0.703125q-0.59375 -0.203125 -2.0625 -0.203125l-2.71875 0l0 4.109375zm0 6.28125l3.390625 0q0.875 0 1.21875 -0.0625q0.625 -0.109375 1.046875 -0.359375q0.421875 -0.265625 0.6875 -0.765625q0.265625 -0.5 0.265625 -1.140625q0 -0.765625 -0.390625 -1.328125q-0.390625 -0.5625 -1.078125 -0.78125q-0.6875 -0.234375 -1.984375 -0.234375l-3.15625 0l0 4.671875zm10.756073 1.609375l0 -13.59375l9.84375 0l0 1.59375l-8.046875 0l0 4.171875l7.53125 0l0 1.59375l-7.53125 0l0 4.625l8.359375 0l0 1.609375l-10.15625 0z" fill-rule="nonzero"></path><path fill="#000000" d="m253.62405 360.3137l-1.671875 0l0 -10.640625q-0.59375 0.578125 -1.578125 1.15625q-0.984375 0.5625 -1.765625 0.859375l0 -1.625q1.40625 -0.65625 2.453125 -1.59375q1.046875 -0.9375 1.484375 -1.8125l1.078125 0l0 13.65625zm12.860107 -1.609375l0 1.609375l-8.984375 0q-0.015625 -0.609375 0.1875 -1.15625q0.34375 -0.921875 1.09375 -1.8125q0.765625 -0.890625 2.1875 -2.0625q2.21875 -1.8125 3.0 -2.875q0.78125 -1.0625 0.78125 -2.015625q0 -0.984375 -0.71875 -1.671875q-0.703125 -0.6875 -1.84375 -0.6875q-1.203125 0 -1.9375 0.734375q-0.71875 0.71875 -0.71875 2.0l-1.71875 -0.171875q0.171875 -1.921875 1.328125 -2.921875q1.15625 -1.015625 3.09375 -1.015625q1.953125 0 3.09375 1.09375q1.140625 1.078125 1.140625 2.6875q0 0.8125 -0.34375 1.609375q-0.328125 0.78125 -1.109375 1.65625q-0.765625 0.859375 -2.5625 2.390625q-1.5 1.265625 -1.9375 1.71875q-0.421875 0.4375 -0.703125 0.890625l6.671875 0zm1.6100769 -1.984375l1.671875 -0.21875q0.28125 1.421875 0.96875 2.046875q0.703125 0.625 1.6875 0.625q1.1875 0 2.0 -0.8125q0.8125 -0.828125 0.8125 -2.03125q0 -1.140625 -0.765625 -1.890625q-0.75 -0.75 -1.90625 -0.75q-0.46875 0 -1.171875 0.1875l0.1875 -1.46875q0.15625 0.015625 0.265625 0.015625q1.0625 0 1.90625 -0.546875q0.859375 -0.5625 0.859375 -1.71875q0 -0.921875 -0.625 -1.515625q-0.609375 -0.609375 -1.59375 -0.609375q-0.96875 0 -1.625 0.609375q-0.640625 0.609375 -0.828125 1.84375l-1.671875 -0.296875q0.296875 -1.6875 1.375 -2.609375q1.09375 -0.921875 2.71875 -0.921875q1.109375 0 2.046875 0.484375q0.9375 0.46875 1.421875 1.296875q0.5 0.828125 0.5 1.75q0 0.890625 -0.46875 1.609375q-0.46875 0.71875 -1.40625 1.15625q1.21875 0.265625 1.875 1.15625q0.671875 0.875 0.671875 2.1875q0 1.78125 -1.296875 3.015625q-1.296875 1.234375 -3.28125 1.234375q-1.796875 0 -2.984375 -1.0625q-1.171875 -1.0625 -1.34375 -2.765625zm15.719482 3.59375l0 -3.25l-5.90625 0l0 -1.53125l6.21875 -8.8125l1.359375 0l0 8.8125l1.84375 0l0 1.53125l-1.84375 0l0 3.25l-1.671875 0zm0 -4.78125l0 -6.140625l-4.25 6.140625l4.25 0zm5.016327 1.21875l1.765625 -0.15625q0.1875 1.28125 0.890625 1.9375q0.71875 0.640625 1.71875 0.640625q1.203125 0 2.03125 -0.90625q0.84375 -0.90625 0.84375 -2.421875q0 -1.421875 -0.8125 -2.25q-0.796875 -0.828125 -2.09375 -0.828125q-0.796875 0 -1.453125 0.375q-0.640625 0.359375 -1.015625 0.953125l-1.578125 -0.203125l1.328125 -7.0l6.765625 0l0 1.609375l-5.4375 0l-0.734375 3.640625q1.234375 -0.84375 2.578125 -0.84375q1.78125 0 3.0 1.234375q1.234375 1.234375 1.234375 3.171875q0 1.84375 -1.078125 3.1875q-1.3125 1.65625 -3.578125 1.65625q-1.859375 0 -3.03125 -1.03125q-1.171875 -1.046875 -1.34375 -2.765625z" fill-rule="nonzero"></path><path fill="#000000" fill-opacity="0.0" d="m550.9265 115.08399l-78.61417 87.99999" fill-rule="nonzero"></path><path stroke="#000000" stroke-width="2.0" stroke-linejoin="round" stroke-linecap="butt" d="m550.9265 115.08399l-70.61954 79.05091" fill-rule="evenodd"></path><path fill="#000000" stroke="#000000" stroke-width="2.0" stroke-linecap="butt" d="m477.84335 191.93407l-3.58313 8.969467l8.510315 -4.56781z" fill-rule="evenodd"></path><path fill="#000000" fill-opacity="0.0" d="m488.9239 286.15485l-170.92914 184.0" fill-rule="nonzero"></path><path stroke="#000000" stroke-width="2.0" stroke-linejoin="round" stroke-linecap="butt" d="m488.9239 286.15485l-162.76187 175.20822" fill-rule="evenodd"></path><path fill="#000000" stroke="#000000" stroke-width="2.0" stroke-linecap="butt" d="m323.74173 459.1147l-3.757019 8.898041l8.597595 -4.4013367z" fill-rule="evenodd"></path><path fill="#000000" fill-opacity="0.0" d="m459.7034 310.46194l227.05515 0l0 175.37009l-227.05515 0z" fill-rule="nonzero"></path><path fill="#000000" d="m470.17215 337.38193l0 -13.59375l5.125 0q1.359375 0 2.078125 0.125q1.0 0.171875 1.671875 0.640625q0.671875 0.46875 1.078125 1.3125q0.421875 0.84375 0.421875 1.84375q0 1.734375 -1.109375 2.9375q-1.09375 1.203125 -3.984375 1.203125l-3.484375 0l0 5.53125l-1.796875 0zm1.796875 -7.140625l3.515625 0q1.75 0 2.46875 -0.640625q0.734375 -0.65625 0.734375 -1.828125q0 -0.859375 -0.4375 -1.46875q-0.421875 -0.609375 -1.125 -0.796875q-0.453125 -0.125 -1.671875 -0.125l-3.484375 0l0 4.859375zm19.568573 -6.453125l1.796875 0l0 7.84375q0 2.0625 -0.46875 3.265625q-0.453125 1.203125 -1.671875 1.96875q-1.203125 0.75 -3.171875 0.75q-1.90625 0 -3.125 -0.65625q-1.21875 -0.65625 -1.734375 -1.90625q-0.515625 -1.25 -0.515625 -3.421875l0 -7.84375l1.796875 0l0 7.84375q0 1.765625 0.328125 2.609375q0.328125 0.84375 1.125 1.296875q0.8125 0.453125 1.96875 0.453125q1.984375 0 2.828125 -0.890625q0.84375 -0.90625 0.84375 -3.46875l0 -7.84375zm4.4729614 13.59375l0 -13.59375l5.109375 0q1.546875 0 2.484375 0.40625q0.953125 0.40625 1.484375 1.265625q0.53125 0.859375 0.53125 1.796875q0 0.875 -0.46875 1.65625q-0.46875 0.765625 -1.4375 1.234375q1.234375 0.359375 1.890625 1.234375q0.671875 0.875 0.671875 2.0625q0 0.953125 -0.40625 1.78125q-0.390625 0.8125 -0.984375 1.265625q-0.59375 0.4375 -1.5 0.671875q-0.890625 0.21875 -2.1875 0.21875l-5.1875 0zm1.796875 -7.890625l2.9375 0q1.203125 0 1.71875 -0.15625q0.6875 -0.203125 1.03125 -0.671875q0.359375 -0.46875 0.359375 -1.1875q0 -0.671875 -0.328125 -1.1875q-0.328125 -0.515625 -0.9375 -0.703125q-0.59375 -0.203125 -2.0625 -0.203125l-2.71875 0l0 4.109375zm0 6.28125l3.390625 0q0.875 0 1.21875 -0.0625q0.625 -0.109375 1.046875 -0.359375q0.421875 -0.265625 0.6875 -0.765625q0.265625 -0.5 0.265625 -1.140625q0 -0.765625 -0.390625 -1.328125q-0.390625 -0.5625 -1.078125 -0.78125q-0.6875 -0.234375 -1.984375 -0.234375l-3.15625 0l0 4.671875zm10.646698 1.609375l0 -13.59375l1.796875 0l0 11.984375l6.7030945 0l0 1.609375l-8.4999695 0zm10.750702 0l0 -13.59375l1.8125 0l0 13.59375l-1.8125 0zm4.2770386 -4.375l1.6875 -0.140625q0.125 1.015625 0.5625 1.671875q0.4375 0.65625 1.359375 1.0625q0.9375 0.40625 2.09375 0.40625q1.03125 0 1.8125 -0.3125q0.796875 -0.3125 1.1875 -0.84375q0.390625 -0.53125 0.390625 -1.15625q0 -0.640625 -0.375 -1.109375q-0.375 -0.484375 -1.234375 -0.8125q-0.546875 -0.21875 -2.421875 -0.65625q-1.875 -0.453125 -2.625 -0.859375q-0.96875 -0.515625 -1.453125 -1.265625q-0.46875 -0.75 -0.46875 -1.6875q0 -1.03125 0.578125 -1.921875q0.59375 -0.90625 1.703125 -1.359375q1.125 -0.46875 2.5 -0.46875q1.515625 0 2.671875 0.484375q1.15625 0.484375 1.765625 1.4375q0.625 0.9375 0.671875 2.140625l-1.71875 0.125q-0.140625 -1.28125 -0.953125 -1.9375q-0.796875 -0.671875 -2.359375 -0.671875q-1.625 0 -2.375 0.609375q-0.75 0.59375 -0.75 1.4375q0 0.734375 0.53125 1.203125q0.515625 0.46875 2.703125 0.96875q2.203125 0.5 3.015625 0.875q1.1875 0.546875 1.75 1.390625q0.578125 0.828125 0.578125 1.921875q0 1.09375 -0.625 2.0625q-0.625 0.953125 -1.796875 1.484375q-1.15625 0.53125 -2.609375 0.53125q-1.84375 0 -3.09375 -0.53125q-1.25 -0.546875 -1.96875 -1.625q-0.703125 -1.078125 -0.734375 -2.453125zm13.0998535 4.375l0 -13.59375l1.8125 0l0 5.578125l7.0625 0l0 -5.578125l1.796875 0l0 13.59375l-1.796875 0l0 -6.40625l-7.0625 0l0 6.40625l-1.8125 0z" fill-rule="nonzero"></path><path fill="#000000" d="m475.78152 359.38193l-1.671875 0l0 -10.640625q-0.59375 0.578125 -1.578125 1.15625q-0.984375 0.5625 -1.765625 0.859375l0 -1.625q1.40625 -0.65625 2.453125 -1.59375q1.046875 -0.9375 1.484375 -1.8125l1.078125 0l0 13.65625zm12.860107 -1.609375l0 1.609375l-8.984375 0q-0.015625 -0.609375 0.1875 -1.15625q0.34375 -0.921875 1.09375 -1.8125q0.765625 -0.890625 2.1875 -2.0625q2.21875 -1.8125 3.0 -2.875q0.78125 -1.0625 0.78125 -2.015625q0 -0.984375 -0.71875 -1.671875q-0.703125 -0.6875 -1.84375 -0.6875q-1.203125 0 -1.9375 0.734375q-0.71875 0.71875 -0.71875 2.0l-1.71875 -0.171875q0.171875 -1.921875 1.328125 -2.921875q1.15625 -1.015625 3.09375 -1.015625q1.953125 0 3.09375 1.09375q1.140625 1.078125 1.140625 2.6875q0 0.8125 -0.34375 1.609375q-0.328125 0.78125 -1.109375 1.65625q-0.765625 0.859375 -2.5625 2.390625q-1.5 1.265625 -1.9375 1.71875q-0.421875 0.4375 -0.703125 0.890625l6.671875 0zm1.6100769 -1.984375l1.671875 -0.21875q0.28125 1.421875 0.96875 2.046875q0.703125 0.625 1.6875 0.625q1.1875 0 2.0 -0.8125q0.8125 -0.828125 0.8125 -2.03125q0 -1.140625 -0.765625 -1.890625q-0.75 -0.75 -1.90625 -0.75q-0.46875 0 -1.171875 0.1875l0.1875 -1.46875q0.15625 0.015625 0.265625 0.015625q1.0625 0 1.90625 -0.546875q0.859375 -0.5625 0.859375 -1.71875q0 -0.921875 -0.625 -1.515625q-0.609375 -0.609375 -1.59375 -0.609375q-0.96875 0 -1.625 0.609375q-0.640625 0.609375 -0.828125 1.84375l-1.671875 -0.296875q0.296875 -1.6875 1.375 -2.609375q1.09375 -0.921875 2.71875 -0.921875q1.109375 0 2.046875 0.484375q0.9375 0.46875 1.421875 1.296875q0.5 0.828125 0.5 1.75q0 0.890625 -0.46875 1.609375q-0.46875 0.71875 -1.40625 1.15625q1.21875 0.265625 1.875 1.15625q0.671875 0.875 0.671875 2.1875q0 1.78125 -1.296875 3.015625q-1.296875 1.234375 -3.28125 1.234375q-1.796875 0 -2.984375 -1.0625q-1.171875 -1.0625 -1.34375 -2.765625zm15.719482 3.59375l0 -3.25l-5.90625 0l0 -1.53125l6.21875 -8.8125l1.359375 0l0 8.8125l1.84375 0l0 1.53125l-1.84375 0l0 3.25l-1.671875 0zm0 -4.78125l0 -6.140625l-4.25 6.140625l4.25 0zm5.016327 1.21875l1.7656555 -0.15625q0.1875 1.28125 0.890625 1.9375q0.71875 0.640625 1.71875 0.640625q1.203125 0 2.03125 -0.90625q0.84375 -0.90625 0.84375 -2.421875q0 -1.421875 -0.8125 -2.25q-0.796875 -0.828125 -2.09375 -0.828125q-0.796875 0 -1.453125 0.375q-0.640625 0.359375 -1.015625 0.953125l-1.5781555 -0.203125l1.3281555 -7.0l6.765625 0l0 1.609375l-5.4375 0l-0.734375 3.640625q1.234375 -0.84375 2.578125 -0.84375q1.78125 0 3.0 1.234375q1.234375 1.234375 1.234375 3.171875q0 1.84375 -1.078125 3.1875q-1.3125 1.65625 -3.578125 1.65625q-1.859375 0 -3.03125 -1.03125q-1.1719055 -1.046875 -1.3437805 -2.765625z" fill-rule="nonzero"></path><path fill="#000000" d="m469.23465 375.71005q0.71875 -0.03125 1.15625 -0.390625q0.453125 -0.359375 0.59375 -1.0q0.15625 -0.640625 0.15625 -2.1875q0.015625 -1.5625 0.0625 -2.046875q0.09375 -0.78125 0.3125 -1.25q0.234375 -0.484375 0.5625 -0.765625q0.34375 -0.28125 0.859375 -0.421875q0.34375 -0.09375 1.140625 -0.09375l0.53125 0l0 1.453125l-0.296875 0q-0.96875 0 -1.28125 0.34375q-0.3125 0.34375 -0.3125 1.5625q0 2.421875 -0.09375 3.0625q-0.171875 1.0 -0.578125 1.546875q-0.40625 0.53125 -1.265625 0.9375q1.015625 0.4375 1.46875 1.3125q0.46875 0.875 0.46875 2.859375q0 1.8125 0.03125 2.15625q0.078125 0.640625 0.375 0.890625q0.3125 0.25 1.1875 0.25l0.296875 0l0 1.453125l-0.53125 0q-0.90625 0 -1.3125 -0.15625q-0.59375 -0.203125 -0.984375 -0.6875q-0.390625 -0.46875 -0.515625 -1.203125q-0.109375 -0.734375 -0.125 -2.40625q0 -1.671875 -0.15625 -2.3125q-0.140625 -0.640625 -0.59375 -1.0q-0.4375 -0.375 -1.15625 -0.40625l0 -1.5z" fill-rule="nonzero"></path><path fill="#000000" d="m481.6325 392.06943l0 1.9375l-1.796875 0l0 -1.53125q0 -1.25 0.296875 -1.796875q0.390625 -0.75 1.234375 -1.125l0.40625 0.640625q-0.5 0.21875 -0.75 0.640625q-0.234375 0.421875 -0.265625 1.234375l0.875 0zm2.875 0l0 1.9375l-1.796875 0l0 -1.53125q0 -1.25 0.296875 -1.796875q0.390625 -0.75 1.234375 -1.125l0.40625 0.640625q-0.5 0.21875 -0.75 0.640625q-0.234375 0.421875 -0.265625 1.234375l0.875 0zm1.353302 8.375l1.65625 -0.265625q0.140625 1.0 0.765625 1.53125q0.640625 0.515625 1.78125 0.515625q1.15625 0 1.703125 -0.46875q0.5625 -0.46875 0.5625 -1.09375q0 -0.5625 -0.484375 -0.890625q-0.34375 -0.21875 -1.703125 -0.5625q-1.84375 -0.46875 -2.5625 -0.796875q-0.703125 -0.34375 -1.078125 -0.9375q-0.359375 -0.609375 -0.359375 -1.328125q0 -0.65625 0.296875 -1.21875q0.3125 -0.5625 0.828125 -0.9375q0.390625 -0.28125 1.0625 -0.484375q0.671875 -0.203125 1.4375 -0.203125q1.171875 0 2.046875 0.34375q0.875 0.328125 1.28125 0.90625q0.421875 0.5625 0.578125 1.515625l-1.625 0.21875q-0.109375 -0.75 -0.65625 -1.171875q-0.53125 -0.4375 -1.5 -0.4375q-1.15625 0 -1.640625 0.390625q-0.484375 0.375 -0.484375 0.875q0 0.328125 0.203125 0.59375q0.203125 0.265625 0.640625 0.4375q0.25 0.09375 1.46875 0.4375q1.765625 0.46875 2.46875 0.765625q0.703125 0.296875 1.09375 0.875q0.40625 0.578125 0.40625 1.4375q0 0.828125 -0.484375 1.578125q-0.484375 0.734375 -1.40625 1.140625q-0.921875 0.390625 -2.078125 0.390625q-1.921875 0 -2.9375 -0.796875q-1.0 -0.796875 -1.28125 -2.359375zm13.65625 1.4375l0.234375 1.484375q-0.703125 0.140625 -1.265625 0.140625q-0.90625 0 -1.40625 -0.28125q-0.5 -0.296875 -0.703125 -0.75q-0.203125 -0.46875 -0.203125 -1.984375l0 -5.65625l-1.234375 0l0 -1.3125l1.234375 0l0 -2.4375l1.65625 -1.0l0 3.4375l1.6875 0l0 1.3125l-1.6875 0l0 5.75q0 0.71875 0.078125 0.921875q0.09375 0.203125 0.296875 0.328125q0.203125 0.125 0.578125 0.125q0.265625 0 0.734375 -0.078125zm7.964569 0.28125q-0.9375 0.796875 -1.796875 1.125q-0.859375 0.3125 -1.84375 0.3125q-1.609375 0 -2.484375 -0.78125q-0.875 -0.796875 -0.875 -2.03125q0 -0.734375 0.328125 -1.328125q0.328125 -0.59375 0.859375 -0.953125q0.53125 -0.359375 1.203125 -0.546875q0.5 -0.140625 1.484375 -0.25q2.03125 -0.25 2.984375 -0.578125q0 -0.34375 0 -0.4375q0 -1.015625 -0.46875 -1.4375q-0.640625 -0.5625 -1.90625 -0.5625q-1.171875 0 -1.734375 0.40625q-0.5625 0.40625 -0.828125 1.46875l-1.640625 -0.234375q0.234375 -1.046875 0.734375 -1.6875q0.515625 -0.640625 1.46875 -0.984375q0.96875 -0.359375 2.25 -0.359375q1.265625 0 2.046875 0.296875q0.78125 0.296875 1.15625 0.75q0.375 0.453125 0.515625 1.140625q0.09375 0.421875 0.09375 1.53125l0 2.234375q0 2.328125 0.09375 2.953125q0.109375 0.609375 0.4375 1.171875l-1.75 0q-0.265625 -0.515625 -0.328125 -1.21875zm-0.140625 -3.71875q-0.90625 0.359375 -2.734375 0.625q-1.03125 0.140625 -1.453125 0.328125q-0.421875 0.1875 -0.65625 0.546875q-0.234375 0.359375 -0.234375 0.796875q0 0.671875 0.5 1.125q0.515625 0.4375 1.484375 0.4375q0.96875 0 1.71875 -0.421875q0.75 -0.4375 1.109375 -1.15625q0.265625 -0.578125 0.265625 -1.671875l0 -0.609375zm7.7351074 3.4375l0.234375 1.484375q-0.703125 0.140625 -1.265625 0.140625q-0.90625 0 -1.40625 -0.28125q-0.5 -0.296875 -0.7031555 -0.75q-0.203125 -0.46875 -0.203125 -1.984375l0 -5.65625l-1.234375 0l0 -1.3125l1.234375 0l0 -2.4375l1.6562805 -1.0l0 3.4375l1.6875 0l0 1.3125l-1.6875 0l0 5.75q0 0.71875 0.078125 0.921875q0.09375 0.203125 0.296875 0.328125q0.203125 0.125 0.578125 0.125q0.265625 0 0.734375 -0.078125zm7.9801636 1.5l0 -1.453125q-1.140625 1.671875 -3.125 1.671875q-0.859375 0 -1.625 -0.328125q-0.75 -0.34375 -1.125 -0.84375q-0.359375 -0.5 -0.515625 -1.234375q-0.09375 -0.5 -0.09375 -1.5625l0 -6.109375l1.671875 0l0 5.46875q0 1.3125 0.09375 1.765625q0.15625 0.65625 0.671875 1.03125q0.515625 0.375 1.265625 0.375q0.75 0 1.40625 -0.375q0.65625 -0.390625 0.921875 -1.046875q0.28125 -0.671875 0.28125 -1.9375l0 -5.28125l1.671875 0l0 9.859375l-1.5 0zm3.2507324 -2.9375l1.65625 -0.265625q0.140625 1.0 0.765625 1.53125q0.640625 0.515625 1.78125 0.515625q1.15625 0 1.703125 -0.46875q0.5625 -0.46875 0.5625 -1.09375q0 -0.5625 -0.484375 -0.890625q-0.34375 -0.21875 -1.703125 -0.5625q-1.84375 -0.46875 -2.5625 -0.796875q-0.703125 -0.34375 -1.078125 -0.9375q-0.359375 -0.609375 -0.359375 -1.328125q0 -0.65625 0.296875 -1.21875q0.3125 -0.5625 0.828125 -0.9375q0.390625 -0.28125 1.0625 -0.484375q0.671875 -0.203125 1.4375 -0.203125q1.171875 0 2.046875 0.34375q0.875 0.328125 1.28125 0.90625q0.421875 0.5625 0.578125 1.515625l-1.625 0.21875q-0.109375 -0.75 -0.65625 -1.171875q-0.53125 -0.4375 -1.5 -0.4375q-1.15625 0 -1.640625 0.390625q-0.484375 0.375 -0.484375 0.875q0 0.328125 0.203125 0.59375q0.203125 0.265625 0.640625 0.4375q0.25 0.09375 1.46875 0.4375q1.765625 0.46875 2.46875 0.765625q0.703125 0.296875 1.09375 0.875q0.40625 0.578125 0.40625 1.4375q0 0.828125 -0.484375 1.578125q-0.484375 0.734375 -1.40625 1.140625q-0.921875 0.390625 -2.078125 0.390625q-1.921875 0 -2.9375 -0.796875q-1.0 -0.796875 -1.28125 -2.359375zm9.5625 -8.859375l0 -1.9375l1.78125 0l0 1.53125q0 1.234375 -0.28125 1.78125q-0.40625 0.75 -1.25 1.140625l-0.40625 -0.671875q0.5 -0.203125 0.75 -0.640625q0.25 -0.4375 0.265625 -1.203125l-0.859375 0zm2.875 0l0 -1.9375l1.78125 0l0 1.53125q0 1.234375 -0.28125 1.78125q-0.40625 0.75 -1.25 1.140625l-0.40625 -0.671875q0.5 -0.203125 0.75 -0.640625q0.25 -0.4375 0.28125 -1.203125l-0.875 0zm4.2438965 3.84375l0 -1.90625l1.90625 0l0 1.90625l-1.90625 0zm0 7.953125l0 -1.90625l1.90625 0l0 1.90625l-1.90625 0zm11.210388 -11.3125l0 1.9375l-1.796875 0l0 -1.53125q0 -1.25 0.296875 -1.796875q0.390625 -0.75 1.234375 -1.125l0.40625 0.640625q-0.5 0.21875 -0.75 0.640625q-0.234375 0.421875 -0.265625 1.234375l0.875 0zm2.875 0l0 1.9375l-1.796875 0l0 -1.53125q0 -1.25 0.296875 -1.796875q0.390625 -0.75 1.234375 -1.125l0.40625 0.640625q-0.5 0.21875 -0.75 0.640625q-0.234375 0.421875 -0.265625 1.234375l0.875 0zm1.6345215 6.9375l1.6875 -0.140625q0.125 1.015625 0.5625 1.671875q0.4375 0.65625 1.359375 1.0625q0.9375 0.40625 2.09375 0.40625q1.03125 0 1.8125 -0.3125q0.796875 -0.3125 1.1875 -0.84375q0.390625 -0.53125 0.390625 -1.15625q0 -0.640625 -0.375 -1.109375q-0.375 -0.484375 -1.234375 -0.8125q-0.546875 -0.21875 -2.421875 -0.65625q-1.875 -0.453125 -2.625 -0.859375q-0.96875 -0.515625 -1.453125 -1.265625q-0.46875 -0.75 -0.46875 -1.6875q0 -1.03125 0.578125 -1.921875q0.59375 -0.90625 1.703125 -1.359375q1.125 -0.46875 2.5 -0.46875q1.515625 0 2.671875 0.484375q1.15625 0.484375 1.765625 1.4375q0.625 0.9375 0.671875 2.140625l-1.71875 0.125q-0.140625 -1.28125 -0.953125 -1.9375q-0.796875 -0.671875 -2.359375 -0.671875q-1.625 0 -2.375 0.609375q-0.75 0.59375 -0.75 1.4375q0 0.734375 0.53125 1.203125q0.515625 0.46875 2.703125 0.96875q2.203125 0.5 3.015625 0.875q1.1875 0.546875 1.75 1.390625q0.578125 0.828125 0.578125 1.921875q0 1.09375 -0.625 2.0625q-0.625 0.953125 -1.796875 1.484375q-1.15625 0.53125 -2.609375 0.53125q-1.84375 0 -3.09375 -0.53125q-1.25 -0.546875 -1.96875 -1.625q-0.703125 -1.078125 -0.734375 -2.453125zm21.974854 -9.21875l1.796875 0l0 7.84375q0 2.0625 -0.46875 3.265625q-0.453125 1.203125 -1.671875 1.96875q-1.203125 0.75 -3.171875 0.75q-1.90625 0 -3.125 -0.65625q-1.21875 -0.65625 -1.734375 -1.90625q-0.515625 -1.25 -0.515625 -3.421875l0 -7.84375l1.796875 0l0 7.84375q0 1.765625 0.328125 2.609375q0.328125 0.84375 1.125 1.296875q0.8125 0.453125 1.96875 0.453125q1.984375 0 2.828125 -0.890625q0.84375 -0.90625 0.84375 -3.46875l0 -7.84375zm14.25415 8.828125l1.796875 0.453125q-0.5625 2.21875 -2.03125 3.390625q-1.46875 1.15625 -3.59375 1.15625q-2.203125 0 -3.578125 -0.890625q-1.375 -0.90625 -2.09375 -2.59375q-0.71875 -1.703125 -0.71875 -3.65625q0 -2.125 0.796875 -3.703125q0.8125 -1.578125 2.3125 -2.390625q1.5 -0.828125 3.296875 -0.828125q2.046875 0 3.4375 1.046875q1.390625 1.03125 1.9375 2.90625l-1.765625 0.421875q-0.46875 -1.484375 -1.375 -2.15625q-0.90625 -0.6875 -2.265625 -0.6875q-1.5625 0 -2.625 0.75q-1.046875 0.75 -1.484375 2.03125q-0.421875 1.265625 -0.421875 2.609375q0 1.734375 0.5 3.03125q0.515625 1.28125 1.578125 1.921875q1.078125 0.640625 2.3125 0.640625q1.515625 0 2.5625 -0.859375q1.046875 -0.875 1.421875 -2.59375zm13.472961 0l1.796875 0.453125q-0.5625 2.21875 -2.03125 3.390625q-1.46875 1.15625 -3.59375 1.15625q-2.203125 0 -3.578125 -0.890625q-1.375 -0.90625 -2.09375 -2.59375q-0.71875 -1.703125 -0.71875 -3.65625q0 -2.125 0.796875 -3.703125q0.8125 -1.578125 2.3125 -2.390625q1.5 -0.828125 3.296875 -0.828125q2.046875 0 3.4375 1.046875q1.390625 1.03125 1.9375 2.90625l-1.765625 0.421875q-0.46875 -1.484375 -1.375 -2.15625q-0.90625 -0.6875 -2.265625 -0.6875q-1.5625 0 -2.625 0.75q-1.046875 0.75 -1.484375 2.03125q-0.421875 1.265625 -0.421875 2.609375q0 1.734375 0.5 3.03125q0.515625 1.28125 1.578125 1.921875q1.078125 0.640625 2.3125 0.640625q1.515625 0 2.5625 -0.859375q1.046875 -0.875 1.421875 -2.59375zm3.8010864 4.765625l0 -13.59375l9.84375 0l0 1.59375l-8.046875 0l0 4.171875l7.53125 0l0 1.59375l-7.53125 0l0 4.625l8.359375 0l0 1.609375l-10.15625 0zm11.8029175 -4.375l1.6875 -0.140625q0.125 1.015625 0.5625 1.671875q0.4375 0.65625 1.359375 1.0625q0.9375 0.40625 2.09375 0.40625q1.03125 0 1.8125 -0.3125q0.796875 -0.3125 1.1875 -0.84375q0.390625 -0.53125 0.390625 -1.15625q0 -0.640625 -0.375 -1.109375q-0.375 -0.484375 -1.234375 -0.8125q-0.546875 -0.21875 -2.421875 -0.65625q-1.875 -0.453125 -2.625 -0.859375q-0.96875 -0.515625 -1.453125 -1.265625q-0.46875 -0.75 -0.46875 -1.6875q0 -1.03125 0.578125 -1.921875q0.59375 -0.90625 1.703125 -1.359375q1.125 -0.46875 2.5 -0.46875q1.515625 0 2.671875 0.484375q1.15625 0.484375 1.765625 1.4375q0.625 0.9375 0.671875 2.140625l-1.71875 0.125q-0.140625 -1.28125 -0.953125 -1.9375q-0.796875 -0.671875 -2.359375 -0.671875q-1.625 0 -2.375 0.609375q-0.75 0.59375 -0.75 1.4375q0 0.734375 0.53125 1.203125q0.515625 0.46875 2.703125 0.96875q2.203125 0.5 3.015625 0.875q1.1875 0.546875 1.75 1.390625q0.578125 0.828125 0.578125 1.921875q0 1.09375 -0.625 2.0625q-0.625 0.953125 -1.796875 1.484375q-1.15625 0.53125 -2.609375 0.53125q-1.84375 0 -3.09375 -0.53125q-1.25 -0.546875 -1.96875 -1.625q-0.703125 -1.078125 -0.734375 -2.453125zm12.4436035 0l1.6875 -0.140625q0.125 1.015625 0.5625 1.671875q0.4375 0.65625 1.359375 1.0625q0.9375 0.40625 2.09375 0.40625q1.03125 0 1.8125 -0.3125q0.796875 -0.3125 1.1875 -0.84375q0.390625 -0.53125 0.390625 -1.15625q0 -0.640625 -0.375 -1.109375q-0.375 -0.484375 -1.234375 -0.8125q-0.546875 -0.21875 -2.421875 -0.65625q-1.875 -0.453125 -2.625 -0.859375q-0.96875 -0.515625 -1.453125 -1.265625q-0.46875 -0.75 -0.46875 -1.6875q0 -1.03125 0.578125 -1.921875q0.59375 -0.90625 1.703125 -1.359375q1.125 -0.46875 2.5 -0.46875q1.515625 0 2.671875 0.484375q1.15625 0.484375 1.765625 1.4375q0.625 0.9375 0.671875 2.140625l-1.71875 0.125q-0.140625 -1.28125 -0.953125 -1.9375q-0.796875 -0.671875 -2.359375 -0.671875q-1.625 0 -2.375 0.609375q-0.75 0.59375 -0.75 1.4375q0 0.734375 0.53125 1.203125q0.515625 0.46875 2.703125 0.96875q2.203125 0.5 3.015625 0.875q1.1875 0.546875 1.75 1.390625q0.578125 0.828125 0.578125 1.921875q0 1.09375 -0.625 2.0625q-0.625 0.953125 -1.796875 1.484375q-1.15625 0.53125 -2.609375 0.53125q-1.84375 0 -3.09375 -0.53125q-1.25 -0.546875 -1.96875 -1.625q-0.703125 -1.078125 -0.734375 -2.453125zm12.3966675 -7.421875l0 -1.9375l1.78125 0l0 1.53125q0 1.234375 -0.28125 1.78125q-0.40625 0.75 -1.25 1.140625l-0.40625 -0.671875q0.5 -0.203125 0.75 -0.640625q0.25 -0.4375 0.265625 -1.203125l-0.859375 0zm2.875 0l0 -1.9375l1.78125 0l0 1.53125q0 1.234375 -0.28125 1.78125q-0.40625 0.75 -1.25 1.140625l-0.40625 -0.671875q0.5 -0.203125 0.75 -0.640625q0.25 -0.4375 0.28125 -1.203125l-0.875 0zm4.2127075 11.796875l0 -1.90625l1.90625 0l0 1.90625q0 1.046875 -0.375 1.6875q-0.375 0.65625 -1.171875 1.0l-0.46875 -0.71875q0.53125 -0.21875 0.78125 -0.671875q0.25 -0.453125 0.28125 -1.296875l-0.953125 0z" fill-rule="nonzero"></path><path fill="#000000" d="m481.6325 414.06943l0 1.9375l-1.796875 0l0 -1.53125q0 -1.25 0.296875 -1.796875q0.390625 -0.75 1.234375 -1.125l0.40625 0.640625q-0.5 0.21875 -0.75 0.640625q-0.234375 0.421875 -0.265625 1.234375l0.875 0zm2.875 0l0 1.9375l-1.796875 0l0 -1.53125q0 -1.25 0.296875 -1.796875q0.390625 -0.75 1.234375 -1.125l0.40625 0.640625q-0.5 0.21875 -0.75 0.640625q-0.234375 0.421875 -0.265625 1.234375l0.875 0zm2.009552 11.3125l0 -9.859375l1.5 0l0 1.5q0.578125 -1.046875 1.0625 -1.375q0.484375 -0.34375 1.078125 -0.34375q0.84375 0 1.71875 0.546875l-0.578125 1.546875q-0.609375 -0.359375 -1.234375 -0.359375q-0.546875 0 -0.984375 0.328125q-0.421875 0.328125 -0.609375 0.90625q-0.28125 0.890625 -0.28125 1.953125l0 5.15625l-1.671875 0zm12.978302 -3.171875l1.71875 0.21875q-0.40625 1.5 -1.515625 2.34375q-1.09375 0.828125 -2.8125 0.828125q-2.15625 0 -3.421875 -1.328125q-1.265625 -1.328125 -1.265625 -3.734375q0 -2.484375 1.265625 -3.859375q1.28125 -1.375 3.328125 -1.375q1.984375 0 3.234375 1.34375q1.25 1.34375 1.25 3.796875q0 0.140625 -0.015625 0.4375l-7.34375 0q0.09375 1.625 0.921875 2.484375q0.828125 0.859375 2.0625 0.859375q0.90625 0 1.546875 -0.46875q0.65625 -0.484375 1.046875 -1.546875zm-5.484375 -2.703125l5.5 0q-0.109375 -1.234375 -0.625 -1.859375q-0.796875 -0.96875 -2.078125 -0.96875q-1.140625 0 -1.9375 0.78125q-0.78125 0.765625 -0.859375 2.046875zm8.438232 2.9375l1.65625 -0.265625q0.140625 1.0 0.765625 1.53125q0.640625 0.515625 1.78125 0.515625q1.15625 0 1.703125 -0.46875q0.5625 -0.46875 0.5625 -1.09375q0 -0.5625 -0.484375 -0.890625q-0.34375 -0.21875 -1.703125 -0.5625q-1.84375 -0.46875 -2.5625 -0.796875q-0.703125 -0.34375 -1.078125 -0.9375q-0.359375 -0.609375 -0.359375 -1.328125q0 -0.65625 0.296875 -1.21875q0.3125 -0.5625 0.828125 -0.9375q0.390625 -0.28125 1.0625 -0.484375q0.671875 -0.203125 1.4375 -0.203125q1.171875 0 2.046875 0.34375q0.875 0.328125 1.28125 0.90625q0.421875 0.5625 0.578125 1.515625l-1.625 0.21875q-0.109375 -0.75 -0.65625 -1.171875q-0.53125 -0.4375 -1.5 -0.4375q-1.15625 0 -1.640625 0.390625q-0.484375 0.375 -0.484375 0.875q0 0.328125 0.203125 0.59375q0.203125 0.265625 0.640625 0.4375q0.25 0.09375 1.46875 0.4375q1.765625 0.46875 2.46875 0.765625q0.703125 0.296875 1.09375 0.875q0.40625 0.578125 0.40625 1.4375q0 0.828125 -0.484375 1.578125q-0.484375 0.734375 -1.40625 1.140625q-0.921875 0.390625 -2.078125 0.390625q-1.921875 0 -2.9375 -0.796875q-1.0 -0.796875 -1.28125 -2.359375zm16.453125 2.9375l0 -1.453125q-1.140625 1.671875 -3.125 1.671875q-0.859375 0 -1.625 -0.328125q-0.75 -0.34375 -1.125 -0.84375q-0.359375 -0.5 -0.515625 -1.234375q-0.09375 -0.5 -0.09375 -1.5625l0 -6.109375l1.671875 0l0 5.46875q0 1.3125 0.09375 1.765625q0.15625 0.65625 0.671875 1.03125q0.515625 0.375 1.265625 0.375q0.75 0 1.40625 -0.375q0.65625 -0.390625 0.921875 -1.046875q0.28125 -0.671875 0.28125 -1.9375l0 -5.28125l1.671875 0l0 9.859375l-1.5 0zm3.8913574 0l0 -13.59375l1.671875 0l0 13.59375l-1.671875 0zm7.8322754 -1.5l0.234375 1.484375q-0.703125 0.140625 -1.265625 0.140625q-0.90625 0 -1.40625 -0.28125q-0.5 -0.296875 -0.703125 -0.75q-0.203125 -0.46875 -0.203125 -1.984375l0 -5.65625l-1.234375 0l0 -1.3125l1.234375 0l0 -2.4375l1.65625 -1.0l0 3.4375l1.6875 0l0 1.3125l-1.6875 0l0 5.75q0 0.71875 0.078125 0.921875q0.09375 0.203125 0.296875 0.328125q0.203125 0.125 0.578125 0.125q0.265625 0 0.734375 -0.078125zm1.0895996 -10.296875l0 -1.9375l1.78125 0l0 1.53125q0 1.234375 -0.28125 1.78125q-0.40625 0.75 -1.25 1.140625l-0.40625 -0.671875q0.5 -0.203125 0.75 -0.640625q0.25 -0.4375 0.265625 -1.203125l-0.859375 0zm2.875 0l0 -1.9375l1.78125 0l0 1.53125q0 1.234375 -0.28125 1.78125q-0.40625 0.75 -1.25 1.140625l-0.40625 -0.671875q0.5 -0.203125 0.75 -0.640625q0.25 -0.4375 0.28125 -1.203125l-0.875 0zm4.2438965 3.84375l0 -1.90625l1.90625 0l0 1.90625l-1.90625 0zm0 7.953125l0 -1.90625l1.90625 0l0 1.90625l-1.90625 0zm11.210388 -11.3125l0 1.9375l-1.796875 0l0 -1.53125q0 -1.25 0.296875 -1.796875q0.390625 -0.75 1.234375 -1.125l0.40625 0.640625q-0.5 0.21875 -0.75 0.640625q-0.234375 0.421875 -0.265625 1.234375l0.875 0zm2.875 0l0 1.9375l-1.796875 0l0 -1.53125q0 -1.25 0.296875 -1.796875q0.390625 -0.75 1.234375 -1.125l0.40625 0.640625q-0.5 0.21875 -0.75 0.640625q-0.234375 0.421875 -0.265625 1.234375l0.875 0zm2.4313965 11.3125l0 -8.546875l-1.484375 0l0 -1.3125l1.484375 0l0 -1.046875q0 -0.984375 0.171875 -1.46875q0.234375 -0.65625 0.84375 -1.046875q0.609375 -0.40625 1.703125 -0.40625q0.703125 0 1.5625 0.15625l-0.25 1.46875q-0.515625 -0.09375 -0.984375 -0.09375q-0.765625 0 -1.078125 0.328125q-0.3125 0.3125 -0.3125 1.203125l0 0.90625l1.921875 0l0 1.3125l-1.921875 0l0 8.546875l-1.65625 0zm4.1520386 -4.921875q0 -2.734375 1.53125 -4.0625q1.265625 -1.09375 3.09375 -1.09375q2.03125 0 3.3125 1.34375q1.296875 1.328125 1.296875 3.671875q0 1.90625 -0.578125 3.0q-0.5625 1.078125 -1.65625 1.6875q-1.078125 0.59375 -2.375 0.59375q-2.0625 0 -3.34375 -1.328125q-1.28125 -1.328125 -1.28125 -3.8125zm1.71875 0q0 1.890625 0.828125 2.828125q0.828125 0.9375 2.078125 0.9375q1.25 0 2.0625 -0.9375q0.828125 -0.953125 0.828125 -2.890625q0 -1.828125 -0.828125 -2.765625q-0.828125 -0.9375 -2.0625 -0.9375q-1.25 0 -2.078125 0.9375q-0.828125 0.9375 -0.828125 2.828125zm8.656982 0q0 -2.734375 1.53125 -4.0625q1.265625 -1.09375 3.09375 -1.09375q2.03125 0 3.3125 1.34375q1.296875 1.328125 1.296875 3.671875q0 1.90625 -0.578125 3.0q-0.5625 1.078125 -1.65625 1.6875q-1.078125 0.59375 -2.375 0.59375q-2.0625 0 -3.34375 -1.328125q-1.28125 -1.328125 -1.28125 -3.8125zm1.71875 0q0 1.890625 0.828125 2.828125q0.828125 0.9375 2.078125 0.9375q1.25 0 2.0625 -0.9375q0.828125 -0.953125 0.828125 -2.890625q0 -1.828125 -0.828125 -2.765625q-0.828125 -0.9375 -2.0625 -0.9375q-1.25 0 -2.078125 0.9375q-0.828125 0.9375 -0.828125 2.828125zm8.844482 -6.875l0 -1.9375l1.78125 0l0 1.53125q0 1.234375 -0.28125 1.78125q-0.40625 0.75 -1.25 1.140625l-0.40625 -0.671875q0.5 -0.203125 0.75 -0.640625q0.25 -0.4375 0.265625 -1.203125l-0.859375 0zm2.875 0l0 -1.9375l1.78125 0l0 1.53125q0 1.234375 -0.28125 1.78125q-0.40625 0.75 -1.25 1.140625l-0.40625 -0.671875q0.5 -0.203125 0.75 -0.640625q0.25 -0.4375 0.28125 -1.203125l-0.875 0z" fill-rule="nonzero"></path><path fill="#000000" d="m474.5159 441.71005l0 1.5q-0.71875 0.03125 -1.171875 0.40625q-0.453125 0.359375 -0.609375 1.0q-0.140625 0.625 -0.15625 2.1875q0 1.546875 -0.046875 2.03125q-0.078125 0.796875 -0.3125 1.265625q-0.21875 0.46875 -0.5625 0.75q-0.328125 0.28125 -0.84375 0.421875q-0.359375 0.109375 -1.15625 0.109375l-0.515625 0l0 -1.453125l0.28125 0q0.96875 0 1.28125 -0.359375q0.3125 -0.34375 0.3125 -1.5625q0 -2.3125 0.09375 -2.9375q0.140625 -1.03125 0.578125 -1.640625q0.453125 -0.625 1.28125 -0.96875q-1.078125 -0.5 -1.515625 -1.34375q-0.4375 -0.84375 -0.4375 -2.828125q0 -1.8125 -0.046875 -2.171875q-0.0625 -0.625 -0.359375 -0.859375q-0.296875 -0.25 -1.1875 -0.25l-0.28125 0l0 -1.453125l0.515625 0q0.90625 0 1.3125 0.140625q0.59375 0.203125 0.984375 0.6875q0.390625 0.484375 0.5 1.21875q0.125 0.734375 0.125 2.40625q0.015625 1.671875 0.15625 2.3125q0.15625 0.625 0.609375 1.0q0.453125 0.359375 1.171875 0.390625z" fill-rule="nonzero"></path></g></svg>

